<?xml version="1.0" encoding="utf-8"?>
<!-- Generator: Adobe Illustrator 23.1.0, SVG Export Plug-In . SVG Version: 6.00 Build 0)  -->
<svg version="1.1" id="Layer_1" xmlns="http://www.w3.org/2000/svg" xmlns:xlink="http://www.w3.org/1999/xlink" x="0px" y="0px"
	 viewBox="0 0 333.9 120.8" style="enable-background:new 0 0 333.9 120.8;" xml:space="preserve">
<style type="text/css">
	.st0{fill:#5091BB;}
</style>
<g>
	<g>
		<g>
			<g>
				<path class="st0" d="M50.6,23.9c4.7,0,8.5-3.9,8.5-8.5c0-4.8-3.8-8.6-8.5-8.6c-4.8,0-8.6,3.9-8.6,8.6C42,20,45.8,23.9,50.6,23.9
					"/>
				<path class="st0" d="M96.9,18.2c8.8-3.5-20.7,17.2-46.1,17.2c-25.3,0-54.7-20.8-46-17.2C34.7,30.6,65.4,30.6,96.9,18.2"/>
				<path class="st0" d="M28.1,67.3c-4.3,3.4,10.2-17.2,22.8-17.2c12.5,0,27.1,20.7,22.8,17.2C58.9,54.8,43.7,54.8,28.1,67.3"/>
			</g>
			<path d="M127.2,25.8l-6.8,20.9H134L127.2,25.8z M141,65.9l-4.1-11.5h-19.3l-3.9,11.5h-11.1L125,8.5h4.4l22.7,57.4H141z"/>
			<g>
				<path class="st0" d="M179.5,46.5c-1.6-0.3-2.9-0.5-3.7-0.5c-7.6,0-11.4,2.5-11.4,7.5c0,3.7,2.1,5.6,6.4,5.6
					c5.8,0,8.7-2.9,8.7-8.7V46.5z M180.4,61.8c-0.9,1.4-2.4,2.6-4.6,3.5c-2.2,0.9-4.4,1.4-6.8,1.4c-4.4,0-7.9-1.1-10.5-3.3
					c-2.5-2.2-3.8-5.4-3.8-9.5c0-4.8,1.8-8.5,5.4-11.2c3.6-2.7,8.7-4.1,15.3-4.1c1.1,0,2.5,0.2,4,0.6c0-4.9-3.1-7.3-9.2-7.3
					c-3.6,0-6.6,0.6-9.1,1.8l-2.1-7.5c3.3-1.6,7.2-2.4,11.8-2.4c6.3,0,10.9,1.4,13.8,4.3c2.9,2.9,4.4,8.3,4.4,16.3v8.8
					c0,5.5,1.1,9,3.3,10.4c-0.8,1.4-1.7,2.3-2.7,2.6c-1,0.3-2.1,0.5-3.4,0.5c-1.4,0-2.6-0.5-3.7-1.5C181.6,64.1,180.8,63,180.4,61.8
					"/>
				<path d="M206,39.1c0,2.4,0.7,4.4,2,5.9c1.4,1.5,3.2,2.2,5.5,2.2c2.3,0,4.1-0.7,5.3-2.2c1.2-1.4,1.9-3.4,1.9-5.9
					c0-2.1-0.7-3.8-2-5.3c-1.3-1.4-3-2.2-5.2-2.2c-2.2,0-4,0.7-5.4,2.1C206.7,35.1,206,36.9,206,39.1 M196.4,76.6l6.1-7.5
					c3.4,3.1,7.1,4.6,11.3,4.6c2.8,0,5.1-0.4,6.9-1.2c1.8-0.8,2.7-2,2.7-3.4c0-2.4-2-3.7-6-3.7c-1.1,0-2.7,0.1-4.8,0.4
					c-2.1,0.3-3.7,0.4-4.8,0.4c-6.6,0-10-2.4-10-7.2c0-1.4,0.6-2.7,1.7-4c1.1-1.3,2.4-2.3,3.8-2.9c-4.7-3.1-7.1-7.4-7.1-13
					c0-4.4,1.6-8.1,4.9-11c3.2-2.9,7.2-4.3,12-4.3c3.7,0,6.8,0.7,9.3,2.1l3.8-4.4l6.7,6.1l-4.6,3.4c1.6,2.4,2.4,5.3,2.4,8.6
					c0,4.7-1.4,8.5-4.3,11.3c-2.9,2.8-6.5,4.2-10.9,4.2c-0.7,0-1.6-0.1-2.8-0.2l-1.6-0.2c-0.2,0-0.9,0.3-2.1,0.8
					c-1.2,0.6-1.8,1.1-1.8,1.7c0,1,0.9,1.5,2.7,1.5c0.8,0,2.1-0.2,4-0.6s3.5-0.6,4.8-0.6c9.4,0,14.1,3.8,14.1,11.3
					c0,4.2-1.9,7.5-5.6,9.8c-3.7,2.4-8.3,3.6-13.6,3.6C207.2,82.1,201.5,80.3,196.4,76.6"/>
				<path d="M246.4,45.1c0,9.1,3.3,13.7,9.8,13.7c3,0,5.4-1.2,7.1-3.5c1.8-2.4,2.6-5.7,2.6-10.1c0-9-3.3-13.5-9.8-13.5
					c-3,0-5.4,1.2-7.2,3.5C247.3,37.6,246.4,40.9,246.4,45.1 M236.4,45.1c0-6.3,1.8-11.4,5.4-15.4c3.6-4,8.4-5.9,14.4-5.9
					c6.3,0,11.1,1.9,14.6,5.7c3.5,3.8,5.2,9,5.2,15.6c0,6.6-1.8,11.8-5.3,15.7c-3.5,3.9-8.4,5.8-14.5,5.8c-6.3,0-11.1-2-14.6-5.9
					C238.2,56.9,236.4,51.6,236.4,45.1"/>
				<path d="M310.3,65.9V42c0-3.5-0.7-6.1-2-7.7c-1.3-1.6-3.6-2.4-6.6-2.4c-1.4,0-2.9,0.4-4.5,1.2c-1.6,0.8-2.9,1.8-3.8,3v29.9h-9.6
					V24.5h6.9l1.8,3.9c2.6-3.1,6.5-4.6,11.6-4.6c4.9,0,8.8,1.5,11.6,4.4c2.8,2.9,4.3,7.1,4.3,12.3v25.4H310.3z"/>
			</g>
		</g>
	</g>
	<g>
		<path class="st0" d="M25.6,108.8c-1.2,0.5-2.5,0.8-3.8,0.8c-2.1,0-3.7-0.7-5-2.1c-1.3-1.4-1.9-3.2-1.9-5.4c0-2.4,0.7-4.4,2.1-5.9
			c1.4-1.5,3.2-2.2,5.3-2.2c1.2,0,2.3,0.2,3.3,0.6v1.1c-1.1-0.5-2.2-0.7-3.3-0.7c-1.9,0-3.4,0.6-4.6,1.9c-1.2,1.3-1.8,3-1.8,5.1
			c0,2,0.6,3.7,1.7,4.9c1.1,1.2,2.6,1.8,4.3,1.8c1.4,0,2.6-0.3,3.7-0.8V108.8z"/>
		<path class="st0" d="M29,109.3v-15h1v14.1h6v0.9H29z"/>
		<path class="st0" d="M38.8,109.3v-15h1v15H38.8z"/>
		<path class="st0" d="M43.7,109.3v-15h7v1h-6v6h5.5v0.9h-5.5v6.2H51v0.9H43.7z"/>
		<path class="st0" d="M65,109.3l-8.9-12.2c-0.2-0.2-0.3-0.5-0.5-0.7l-0.1-0.2h0c0,0.2,0,0.4,0,0.7v12.4h-1v-15h0.8l8.9,12.1
			c0.2,0.3,0.4,0.6,0.6,1h0.1c0-0.5-0.1-0.9-0.1-1.3V94.3h1v15H65z"/>
		<path class="st0" d="M73.6,95.2v14.1h-1V95.2h-4.3v-1H78v1H73.6z"/>
		<path class="st0" d="M99.4,109.3V98.6c0-0.3,0-1,0.1-2.2h0c-0.2,0.6-0.4,1-0.5,1.3l-5.3,11.6h-0.3l-5.4-11.5
			c-0.2-0.4-0.3-0.8-0.5-1.4h-0.1c0,0.7,0.1,1.3,0.1,2v10.9h-1v-15h1l5.6,12.1c0,0.1,0.1,0.2,0.1,0.3c0,0.1,0.1,0.2,0.1,0.4
			c0.1,0.2,0.1,0.4,0.2,0.6h0.1l0.1-0.3c0,0,0.1-0.4,0.4-1l5.5-12h0.9v15H99.4z"/>
		<path class="st0" d="M114,109.3l-1.7-4.7h-6.5l-1.7,4.7h-1.1l5.7-15h1l5.6,15H114z M109.4,96.7c-0.1-0.2-0.1-0.4-0.2-0.6
			c0-0.2-0.1-0.3-0.2-0.5h0c-0.1,0.5-0.2,0.8-0.3,1.1l-2.5,7h5.8L109.4,96.7z"/>
		<path class="st0" d="M128.3,109.3l-8.9-12.2c-0.2-0.2-0.3-0.5-0.5-0.7l-0.1-0.2h0c0,0.2,0,0.4,0,0.7v12.4h-1v-15h0.8l8.9,12.1
			c0.2,0.3,0.4,0.6,0.6,1h0.1c0-0.5-0.1-0.9-0.1-1.3V94.3h1v15H128.3z"/>
		<path class="st0" d="M142.7,109.3l-1.7-4.7h-6.5l-1.7,4.7h-1.1l5.7-15h1l5.6,15H142.7z M138.1,96.7c-0.1-0.2-0.1-0.4-0.2-0.6
			c0-0.2-0.1-0.3-0.2-0.5h0c-0.1,0.5-0.2,0.8-0.3,1.1l-2.5,7h5.8L138.1,96.7z"/>
		<path class="st0" d="M156.8,108.3c-1.5,0.9-3.1,1.3-4.8,1.3c-2,0-3.7-0.7-5-2.1c-1.3-1.4-1.9-3.2-1.9-5.5c0-2.3,0.7-4.2,2-5.7
			c1.4-1.5,3.2-2.3,5.5-2.3c1.3,0,2.6,0.3,3.8,0.8v1.1c-1.4-0.7-2.7-1-4-1c-1.9,0-3.4,0.6-4.6,1.9c-1.1,1.3-1.7,2.9-1.7,5
			c0,2.1,0.5,3.8,1.6,5c1.1,1.2,2.5,1.8,4.4,1.8c1.4,0,2.5-0.3,3.6-0.9v-5h-3.5v-0.9h4.6V108.3z"/>
		<path class="st0" d="M160.3,109.3v-15h7v1h-6v6h5.5v0.9h-5.5v6.2h6.3v0.9H160.3z"/>
		<path class="st0" d="M184,109.3V98.6c0-0.3,0-1,0.1-2.2h0c-0.2,0.6-0.4,1-0.5,1.3l-5.3,11.6h-0.3l-5.4-11.5
			c-0.2-0.4-0.3-0.8-0.5-1.4h-0.1c0,0.7,0.1,1.3,0.1,2v10.9h-1v-15h1l5.6,12.1c0,0.1,0.1,0.2,0.1,0.3c0,0.1,0.1,0.2,0.1,0.4
			c0.1,0.2,0.1,0.4,0.2,0.6h0.1l0.1-0.3c0,0,0.1-0.4,0.4-1l5.5-12h0.9v15H184z"/>
		<path class="st0" d="M188.8,109.3v-15h7v1h-6v6h5.5v0.9h-5.5v6.2h6.3v0.9H188.8z"/>
		<path class="st0" d="M210.1,109.3l-8.9-12.2c-0.2-0.2-0.3-0.5-0.5-0.7l-0.1-0.2h0c0,0.2,0,0.4,0,0.7v12.4h-1v-15h0.8l8.9,12.1
			c0.2,0.3,0.4,0.6,0.6,1h0.1c0-0.5-0.1-0.9-0.1-1.3V94.3h1v15H210.1z"/>
		<path class="st0" d="M218.8,95.2v14.1h-1V95.2h-4.3v-1h9.7v1H218.8z"/>
		<path class="st0" d="M232.6,103.3v6h-1v-15h3.6c1.5,0,2.7,0.4,3.5,1.1c0.8,0.7,1.2,1.8,1.2,3.1c0,1.4-0.5,2.5-1.4,3.4
			c-0.9,0.9-2.2,1.3-3.8,1.3H232.6z M232.6,95.2v7.1h2.1c1.4,0,2.4-0.3,3.1-1c0.7-0.6,1.1-1.6,1.1-2.7c0-2.3-1.3-3.4-3.9-3.4H232.6z
			"/>
		<path class="st0" d="M243.2,109.3v-15h1v14.1h6v0.9H243.2z"/>
		<path class="st0" d="M263.7,109.3l-1.7-4.7h-6.5l-1.7,4.7h-1.1l5.7-15h1l5.6,15H263.7z M259.1,96.7c-0.1-0.2-0.1-0.4-0.2-0.6
			c0-0.2-0.1-0.3-0.2-0.5h0c-0.1,0.5-0.2,0.8-0.3,1.1l-2.5,7h5.8L259.1,96.7z"/>
		<path class="st0" d="M269.2,95.2v14.1h-1V95.2h-4.3v-1h9.7v1H269.2z"/>
		<path class="st0" d="M277.1,95.2v6.1h5.5v0.9h-5.5v7h-1v-15h7v1H277.1z"/>
		<path class="st0" d="M292.2,109.6c-2.1,0-3.8-0.7-5.1-2.1c-1.3-1.4-1.9-3.2-1.9-5.5c0-2.4,0.6-4.3,1.9-5.8
			c1.3-1.4,3.1-2.2,5.3-2.2c2,0,3.7,0.7,4.9,2.1c1.3,1.4,1.9,3.2,1.9,5.5c0,2.5-0.6,4.4-1.9,5.9C296,108.9,294.3,109.6,292.2,109.6z
			 M292.3,95c-1.7,0-3.2,0.6-4.3,1.9c-1.1,1.3-1.7,2.9-1.7,5c0,2.1,0.5,3.7,1.6,4.9s2.5,1.8,4.3,1.8c1.9,0,3.3-0.6,4.4-1.8
			c1.1-1.2,1.6-2.9,1.6-5.1c0-2.1-0.5-3.8-1.6-5C295.5,95.5,294.1,95,292.3,95z"/>
		<path class="st0" d="M310,109.3l-2-4.4c-0.4-0.9-0.8-1.5-1.2-1.8c-0.4-0.3-0.9-0.5-1.5-0.5h-1.9v6.7h-1v-15h4.2
			c1.3,0,2.4,0.4,3.1,1.1c0.8,0.7,1.1,1.7,1.1,2.8c0,1.1-0.3,2-0.9,2.7c-0.6,0.7-1.5,1.2-2.6,1.4v0c0.6,0.2,1.2,1,1.7,2.2l2.2,4.8
			H310z M303.3,95.2v6.4h2.6c1.1,0,2.1-0.3,2.7-0.9c0.7-0.6,1-1.4,1-2.5c0-1-0.3-1.7-0.9-2.3c-0.6-0.5-1.5-0.8-2.6-0.8H303.3z"/>
		<path class="st0" d="M327.2,109.3V98.6c0-0.3,0-1,0.1-2.2h0c-0.2,0.6-0.4,1-0.5,1.3l-5.3,11.6h-0.3l-5.4-11.5
			c-0.2-0.4-0.3-0.8-0.5-1.4h-0.1c0,0.7,0.1,1.3,0.1,2v10.9h-1v-15h1l5.6,12.1c0,0.1,0.1,0.2,0.1,0.3c0,0.1,0.1,0.2,0.1,0.4
			c0.1,0.2,0.1,0.4,0.2,0.6h0.1l0.1-0.3c0,0,0.1-0.4,0.4-1l5.5-12h0.9v15H327.2z"/>
	</g>
</g>
</svg>
