<svg xmlns="http://www.w3.org/2000/svg" xmlns:xlink="http://www.w3.org/1999/xlink" id="Ebene_1" x="0px" y="0px" viewBox="0 0 867 326" style="enable-background:new 0 0 867 326;" xml:space="preserve">
<style type="text/css">
	.st0{fill:#F25022;}
	.st1{fill:#80BA01;}
	.st2{fill:#02A4EF;}
	.st3{fill:#FFB902;}
	.st4{fill:#777777;}
</style>
<g>
	<g>
		<path class="st0" d="M73.3,104.7h55.5c0,18.5,0,37,0,55.5c-18.5,0-37,0-55.5,0V104.7L73.3,104.7z"></path>
		<path class="st1" d="M134.5,104.7H190c0,18.5,0,37,0,55.5c-18.5,0-37,0-55.5,0C134.5,141.7,134.5,123.2,134.5,104.7L134.5,104.7z"></path>
		<path class="st2" d="M73.3,165.8c18.5,0,37,0,55.5,0c0,18.5,0,37,0,55.5H73.3V165.8L73.3,165.8z"></path>
		<path class="st3" d="M134.5,165.8c18.5,0,37,0,55.5,0c0,18.5,0,37,0,55.5h-55.5C134.5,202.8,134.5,184.3,134.5,165.8L134.5,165.8z    "></path>
	</g>
	<g>
		<path class="st4" d="M316.7,126.5c-3.3,0.4-6.2,3.4-6.1,6.8c-0.1,3.2,2.5,6.1,5.6,6.7c3,0.7,6.4-0.6,8-3.3c1.4-2.4,1-5.7-0.8-7.8    C321.8,127,319.1,126.2,316.7,126.5z"></path>
		<path class="st4" d="M283.7,128.1c-6.9,17.3-14,34.4-21,51.7c-1.5-3.4-2.8-6.9-4.1-10.4c-5.4-13.8-10.9-27.6-16.3-41.4    c-5.8,0-11.6,0-17.4,0c0,23.3,0,46.6,0,70c3.8,0,7.6,0,11.4,0c0-10.4,0-20.9,0-31.3c0-7.5-0.1-15.1,0.1-22.6    c0.2,0.3,0.4,0.7,0.6,1.1c7.1,17.6,14.2,35.3,21.3,52.9c2.9,0,5.8,0.1,8.6-0.1c6.9-17.6,14-35.2,20.9-52.8    c0.2-0.4,0.4-0.8,0.6-1.1c0.1,0.8,0.1,1.5,0.1,2.3c0,17.2,0,34.4,0,51.6c4,0.1,8.1,0,12.1,0c0-23.3,0-46.6,0-70    C294.9,128,289.3,128,283.7,128.1z"></path>
		<path class="st4" d="M367.6,147.8c-5.8-1.6-12-1.7-17.8-0.1c-5.3,1.5-10.2,4.8-13.3,9.4c-3.7,5.4-5,12.1-4.7,18.6    c0.3,6.2,2.7,12.4,7.3,16.8c4.2,4,9.9,6.2,15.6,6.5c5.6,0.3,11.5-0.5,16.4-3.4c0-3.6,0-7.2,0-10.9c-3.2,2.3-6.9,4-10.8,4.4    c-4,0.3-8.2-0.7-11.2-3.3c-2.9-2.5-4.5-6.2-4.8-10c-0.5-4.8,0.2-10,3.2-13.9c2.3-3.2,6.1-5.2,10-5.5c4.9-0.6,9.8,1.3,13.7,4.2    c0-3.8,0-7.7,0-11.5C369.9,148.6,368.8,148.2,367.6,147.8z"></path>
		<path class="st4" d="M491.8,170.6c-3.5-2-7.6-3-11-5.3c-2-1.3-2.6-4-1.7-6.1c1-2.1,3.5-3.1,5.7-3.2c4.5-0.2,8.9,1.2,12.6,3.7    c0-3.7,0-7.4,0-11c-5.3-2-11.1-2.7-16.6-1.7c-4.7,0.8-9.3,3.3-11.9,7.3c-2.3,3.5-2.6,8-1.7,12c0.6,2.7,2.3,5.1,4.5,6.8    c3.1,2.4,6.8,3.7,10.4,5.3c1.9,0.9,3.9,1.8,5.2,3.4c1.5,2.1,1,5.6-1.4,6.8c-2.6,1.2-5.5,1.2-8.3,0.8c-3.9-0.7-7.7-2.4-10.9-4.7    c0,3.9,0,7.7,0,11.6c3.8,1.7,8,2.5,12.2,2.8c5.9,0.2,12.3-0.9,16.7-5.1c4.6-4.1,5.8-11.4,3.1-16.9    C497.3,174.2,494.6,172.2,491.8,170.6z"></path>
		<path class="st4" d="M397.8,148.6c-3,1.7-4.9,4.7-6.2,7.9c0-2.9,0-5.7,0-8.6c-3.9,0-7.9,0-11.8,0c0,16.7,0,33.4,0,50.1    c3.9,0,7.9,0,11.8,0c0-8,0-16,0-24c-0.1-3.5,0.2-7.1,1.7-10.2c1.4-3,4.1-5.6,7.5-6c2.8-0.3,5.7,0.4,8.1,1.9c0-4,0-8,0-12    C405.3,146.4,401.1,146.6,397.8,148.6z"></path>
		<path class="st4" d="M311.7,147.9c0,16.7,0,33.4,0,50.1c4,0,7.9,0,11.9,0c0-16.7,0-33.4,0-50.1    C319.7,147.8,315.7,147.8,311.7,147.9z"></path>
		<path class="st4" d="M448.2,149c-5.3-2.4-11.4-2.8-17.2-2c-6,0.8-11.9,3.6-15.8,8.4c-3.5,4.3-5.2,9.8-5.5,15.3    c-0.5,6.5,0.6,13.3,4.4,18.7c3.2,4.7,8.3,7.9,13.9,9c4.6,1,9.4,1,14,0c5.4-1.1,10.4-4.1,13.8-8.5c3.3-4.1,4.9-9.4,5.3-14.6    c0.4-5.3-0.2-10.9-2.4-15.8C456.6,154.9,452.9,151,448.2,149z M447.1,182.6c-1.1,2.6-3.2,4.8-5.9,5.8c-3.1,1.2-6.6,1.3-9.8,0.4    c-3.3-0.9-6-3.2-7.5-6.2c-1.9-3.9-2.2-8.3-1.8-12.6c0.4-3.8,1.7-7.8,4.6-10.5c2.1-2,5-3,7.9-3.1c3.6-0.2,7.4,0.8,10,3.4    c2.8,2.7,3.8,6.7,4.1,10.5C449,174.4,448.8,178.7,447.1,182.6z"></path>
		<path class="st4" d="M544.5,149.3c-5.5-2.8-11.8-3.2-17.8-2.4c-4.8,0.6-9.6,2.5-13.3,5.7c-4.5,3.9-7.1,9.6-7.9,15.4    c-0.7,5.8-0.5,12,1.9,17.4c2.3,5.4,6.8,9.7,12.2,11.8c5.3,2.1,11.3,2.3,16.9,1.4c5.7-0.9,11.2-4,14.8-8.6c3.8-4.8,5.4-11,5.4-17.1    c0.1-4.1-0.4-8.2-1.9-12C552.9,156,549.2,151.7,544.5,149.3z M544,178c-0.5,2.6-1.4,5.3-3.1,7.4c-1.7,2.1-4.3,3.4-7,3.8    c-2.9,0.4-5.9,0.2-8.6-0.9c-2.9-1.2-5.1-3.7-6.3-6.6c-1.4-3.4-1.7-7.2-1.4-10.9c0.3-3.6,1.3-7.2,3.6-10c2.1-2.6,5.4-4,8.8-4.2    c3.4-0.2,7,0.5,9.6,2.8c2.4,2,3.7,5,4.3,8C544.5,170.8,544.5,174.5,544,178z"></path>
		<path class="st4" d="M607.6,147.9c-0.1-5,0-10,0-15c-4,1.2-7.9,2.5-11.9,3.6c-0.1,3.8,0,7.6-0.1,11.4c-5.9,0-11.7,0-17.6,0    c0.1-3-0.2-6,0.2-9c0.4-2.3,1.7-4.7,4-5.6c2.9-1.2,6.1-0.4,8.8,0.8c0-3.4,0-6.9,0-10.3c-5.8-1.6-12.4-1.3-17.5,2.1    c-3.3,2.1-5.7,5.5-6.8,9.2c-1.3,4.1-0.6,8.5-0.8,12.8c-2.8,0-5.5,0-8.3,0c0,3.2,0,6.4,0,9.6c2.8,0.1,5.6,0,8.3,0    c0,13.5,0,27,0,40.5c4,0,8,0,12,0c0-13.5,0-27,0-40.5c5.9,0,11.7,0,17.6,0c0,8.6,0,17.2,0,25.8c0.1,4,0.7,8.3,3.4,11.4    c2.3,2.8,5.9,4.1,9.5,4.3c3.7,0.3,7.5-0.2,11-1.7v-9.8c-2.6,1.8-6.3,2.5-9.1,0.9c-1.7-0.9-2.4-3-2.6-4.8c-0.4-3.1-0.1-6.2-0.2-9.3    c0-5.6,0-11.2,0-16.8c4,0,7.9-0.1,11.9,0.1v-9.7C615.5,147.8,611.5,147.8,607.6,147.9z"></path>
		<g>
			<path class="st4" d="M677.8,159.2c6.3-3.4,9.5-9,9.5-16.7c0-5.2-1.9-9.5-5.7-12.9c-3.7-3.3-8.7-5-14.8-5     c-6.2,0-11.6,1.4-16.2,4.1l-0.9,0.5v12.1l2.9-2.2c3.9-3,8-4.5,12.3-4.5c7.5,0,10.9,3.1,10.9,9.7c0,2.6,0,10.6-14.9,10.6h-7.1     v10.1h7.4c4.2,0,16.9,0,16.9,11.4c0,3.5-1.2,6.1-3.6,8.1c-2.5,2.1-5.9,3.1-10.1,3.1c-5.4,0-10.2-1.7-14.5-5.1l-2.9-2.3v13     l0.8,0.5c4.1,2.6,9.5,3.9,16.2,3.9c7.5,0,13.7-2,18.3-6c4.7-4,7.1-9.4,7.1-16c0-4.8-1.6-8.9-4.8-12.2     C682.9,161.6,680.5,160.1,677.8,159.2z"></path>
			<path class="st4" d="M723.3,151c-5.6,0-10.1,1.8-13.5,5.4c0.6-5.8,2.2-10.7,4.8-14.5c3.3-4.8,7.5-7.2,12.9-7.2     c3.5,0,7,0.8,10.2,2.5l2.6,1.3v-11.3l-1-0.5c-3-1.4-7-2.1-11.9-2.1c-8.8,0-16,3.8-21.4,11.3c-5.2,7.3-7.9,17.2-7.9,29.3     c0,10.1,2.1,18,6.1,23.7c4.2,5.9,10,8.8,17.4,8.8c6.6,0,12.1-2.3,16.5-6.8c4.3-4.5,6.5-10.4,6.5-17.4c0-6.8-1.9-12.3-5.7-16.3     C734.9,153.1,729.7,151,723.3,151z M729.8,184.1L729.8,184.1c-2,2.4-4.7,3.6-8,3.6c-3.5,0-6.2-1.4-8.4-4.2     c-2.2-2.9-3.3-6.5-3.3-10.7c0-3.2,1.1-6,3.2-8.3c2.1-2.3,4.9-3.5,8.4-3.5c3.6,0,6.3,1.1,8.3,3.4c2,2.3,3,5.7,3,10     C732.9,178.4,731.9,181.6,729.8,184.1z"></path>
			<path class="st4" d="M787.2,158.1c-4.3-3.9-10.3-5.9-17.9-5.9c-1.2,0-2.6,0-3.9,0.1v-16.1h25.3v-10.5h-36.1v37.4l1.9-0.1     c5.1-0.4,8.6-0.6,10.4-0.6c5.1,0,9,1.1,11.6,3.3c2.6,2.1,3.8,5.1,3.8,9c0,4-1.2,7-3.8,9.4c-2.6,2.4-6,3.6-10.3,3.6     c-4.4,0-8.8-1.4-13.1-4.2l-2.7-1.8v12.4l0.9,0.5c3.4,2,8.2,3,14.9,3c7.8,0,14.1-2.2,18.7-6.4c4.6-4.3,6.9-10,6.9-17     C793.7,167.5,791.5,162.1,787.2,158.1z"></path>
		</g>
	</g>
</g>
</svg>