<?xml version="1.0" encoding="UTF-8"?>
<svg xmlns="http://www.w3.org/2000/svg" xmlns:xlink="http://www.w3.org/1999/xlink" width="730.11pt" height="164.85pt" viewBox="0 0 730.11 164.85" version="1.1">
<defs>
<clipPath id="clip1">
  <path d="M 0 0 L 730.109375 0 L 730.109375 164.851563 L 0 164.851563 Z M 0 0 "/>
</clipPath>
</defs>
<g id="surface1">
<path style=" stroke:none;fill-rule:nonzero;fill:rgb(0%,0%,0%);fill-opacity:1;" d="M 485.453125 91.023438 C 482.738281 86.875 477.9375 84.574219 472.996094 85.058594 C 465.15625 85.058594 461.464844 89.644531 461.464844 99.289063 L 461.464844 117.660156 C 461.464844 126.84375 465.15625 131.441406 472.539063 131.441406 C 477.605469 131.441406 482.222656 129.136719 485.453125 125.011719 Z M 485.453125 78.628906 L 485.453125 53.828125 L 500.214844 53.828125 L 500.214844 142.003906 L 487.292969 142.003906 L 486.371094 135.570313 C 481.640625 140.671875 474.859375 143.367188 467.917969 142.914063 C 454.085938 142.914063 446.699219 132.8125 446.699219 117.207031 L 446.699219 98.371094 C 446.699219 82.304688 454.085938 72.660156 468.847656 72.660156 C 474.839844 72.660156 480.835938 74.488281 485.453125 78.621094 Z M 436.09375 87.808594 C 434.246094 86.429688 431.933594 85.96875 429.628906 85.96875 C 420.875 85.96875 415.796875 92.40625 414.871094 103.417969 L 414.871094 142.003906 L 399.648438 142.003906 L 399.648438 73.578125 L 412.570313 73.578125 L 413.480469 85.058594 C 417.632813 76.332031 423.175781 72.660156 430.097656 72.660156 C 432.863281 72.660156 435.164063 73.113281 437.480469 74.488281 Z M 344.292969 117.660156 C 344.292969 126.84375 348.441406 131.441406 356.28125 131.441406 C 364.585938 131.441406 368.269531 126.382813 368.269531 117.660156 L 368.269531 97.453125 C 368.269531 88.730469 364.582031 83.675781 356.28125 83.675781 C 347.976563 83.675781 344.285156 88.730469 344.285156 97.460938 L 344.285156 117.660156 Z M 383.5 118.582031 C 383.5 132.355469 374.277344 143.378906 356.28125 143.378906 C 338.292969 143.378906 329.523438 132.816406 329.523438 118.582031 L 329.523438 97.460938 C 329.523438 83.675781 338.746094 72.660156 356.28125 72.660156 C 374.277344 72.660156 383.5 83.21875 383.5 97.453125 Z M 265.390625 53.835938 L 298.148438 109.34375 L 298.148438 53.828125 L 311.984375 53.828125 L 311.984375 141.914063 L 300.917969 141.914063 L 267.242188 84.566406 L 267.242188 141.910156 L 252.9375 141.910156 L 252.9375 53.835938 L 265.394531 53.835938 L 265.390625 53.835938 "/>
<g clip-path="url(#clip1)" clip-rule="nonzero">
<path style=" stroke:none;fill-rule:nonzero;fill:rgb(8.198547%,45.498657%,67.799377%);fill-opacity:1;" d="M 76.351563 81.515625 L 94.289063 38.476563 L 122.347656 106.691406 L 133.839844 86.089844 L 169.257813 164.839844 C 185.359375 146.527344 194.550781 123.179688 194.550781 98.457031 C 195.476563 45.347656 152.699219 0.933594 98.882813 0.0195313 C 45.082031 -0.898438 0.921875 41.679688 0 95.257813 L 0 98.917969 C 0 123.183594 8.738281 146.539063 25.296875 164.851563 L 68.070313 68.242188 L 76.351563 81.519531 Z M 713.058594 102.464844 L 713.058594 53.835938 L 730.105469 53.835938 L 730.105469 141.910156 L 716.746094 141.910156 L 686.328125 91.441406 L 686.328125 141.910156 L 669.273438 141.910156 L 669.273438 53.835938 L 683.554688 53.835938 Z M 627.339844 96.957031 L 616.28125 96.957031 L 616.28125 69.890625 L 627.339844 69.890625 C 633.332031 69.890625 636.097656 73.558594 636.097656 83.195313 C 636.097656 92.824219 633.332031 96.957031 627.335938 96.957031 Z M 596.460938 53.835938 L 596.460938 141.910156 L 615.820313 141.910156 L 615.820313 112.082031 L 629.183594 112.082031 C 645.773438 112.082031 655.449219 101.078125 655.449219 83.183594 C 655.449219 64.835938 645.316406 53.824219 627.800781 53.824219 L 596.460938 53.824219 Z M 558.210938 141.910156 L 537.933594 141.910156 L 510.742188 53.835938 L 532.40625 53.835938 L 548.070313 118.515625 L 563.742188 53.835938 L 585.398438 53.835938 L 558.214844 141.914063 L 558.210938 141.910156 "/>
</g>
</g>
</svg>
