<?xml version="1.0" encoding="utf-8"?>
<!-- Generator: Adobe Illustrator 24.1.3, SVG Export Plug-In . SVG Version: 6.00 Build 0)  -->
<svg version="1.1" id="Layer_1" xmlns="http://www.w3.org/2000/svg" xmlns:xlink="http://www.w3.org/1999/xlink" x="0px" y="0px"
	 viewBox="0 0 215 100" style="enable-background:new 0 0 215 100;" xml:space="preserve">
<style type="text/css">
	.st0{fill:url(#SVGID_1_);}
</style>
<g>
	<linearGradient id="SVGID_1_" gradientUnits="userSpaceOnUse" x1="13.4856" y1="87.7507" x2="102.1632" y2="10.9812">
		<stop  offset="0" style="stop-color:#000000"/>
		<stop  offset="0.05" style="stop-color:#000000"/>
		<stop  offset="0.0727" style="stop-color:#120C01"/>
		<stop  offset="0.1396" style="stop-color:#442C03"/>
		<stop  offset="0.2118" style="stop-color:#704906"/>
		<stop  offset="0.2876" style="stop-color:#976208"/>
		<stop  offset="0.368" style="stop-color:#B77609"/>
		<stop  offset="0.4544" style="stop-color:#D1880B"/>
		<stop  offset="0.5488" style="stop-color:#E6950C"/>
		<stop  offset="0.6555" style="stop-color:#F49E0C"/>
		<stop  offset="0.7849" style="stop-color:#FCA30D"/>
		<stop  offset="1" style="stop-color:#FFA50D"/>
	</linearGradient>
	<path class="st0" d="M98.06,14.71L87.6,75c-2.46,9.68-10.1,10.29-13.76,10.29H16.1l10.63-61.22c0.31-1.2,1.73-4.46,4.12-6.39
		c2.25-1.82,5.36-2.99,8.07-2.99H98.06 M103.66,10h-5.59H38.91c-3.77,0-7.89,1.51-11.02,4.03c-3.43,2.76-5.24,7.01-5.72,8.87
		l-0.05,0.19l-0.03,0.19L11.46,84.49L10.5,90h5.59h57.74c12.88,0,17.01-8.67,18.32-13.84l0.04-0.18l0.03-0.18l10.46-60.3L103.66,10
		L103.66,10z"/>
	<path d="M42,20.59c-2.24,0-4.83,0.97-6.7,2.49c-1.98,1.61-3.16,4.32-3.42,5.32l-8.82,51.02h11.42l5.8-32.72h8.2l-1.92,10.67H59
		c9.17,0,12.19-6.16,12.19-11.26c0-4.27-1.97-7.82-10.36-7.82l-19.06-0.02l1.23-6.93h16.23c14.06,0,18.89,6.44,18.89,13.99
		c0,8.61-4.27,18.89-19.94,18.89h-12.8l-2.71,15.19h28.33c3.04,0,9.39-0.51,11.43-8.58l8.68-50.25H42z"/>
	<g>
		<path d="M121.63,23.17l0.04-0.39c0.12-1.23-0.41-2.28-3.32-2.28c-2.46,0-3.36,1.07-3.36,2.38c0,1.13,0.39,1.62,2.25,2.13
			l2.21,0.61c1.62,0.45,3.16,1.48,3.16,3.61c0,2.42-1.52,4.55-5.27,4.55c-4.76,0-5.74-1.78-5.51-3.65l0.04-0.35h1.78l-0.04,0.33
			c-0.14,1.15,0.43,2.13,3.65,2.13c2.42,0,3.55-1.07,3.55-2.71c0-1.39-0.68-2.01-2.21-2.42l-2.17-0.57c-2.03-0.53-3.2-1.56-3.2-3.51
			c0-2.11,1.58-4.06,5.14-4.06c4.08,0,5.29,1.78,5.08,3.77l-0.04,0.41H121.63z"/>
		<path d="M124.71,26.38c0.33-1.82,1.39-3.87,4.53-3.87c3.96,0,4.78,2.42,4.41,4.65l-0.45,2.73c-0.31,1.87-1.46,3.89-4.57,3.89
			c-3.96,0-4.82-2.42-4.41-4.67L124.71,26.38z M131.99,26.98c0.25-1.43-0.21-3.05-2.73-3.05c-1.91,0-2.67,1.37-2.89,2.6l-0.49,2.77
			c-0.25,1.43,0.18,3.07,2.73,3.07c1.89,0,2.66-1.39,2.89-2.62L131.99,26.98z"/>
		<path d="M136.54,32.19l-0.9,5.06h-1.7l2.54-14.51h1.52l-0.12,1.25c0.64-0.9,1.68-1.48,3.18-1.48c2.73,0,4.2,1.99,3.73,4.59
			l-0.51,2.91c-0.39,2.17-1.93,3.77-4.24,3.77C138.26,33.78,137.05,33.17,136.54,32.19z M142.67,29.44l0.39-2.15
			c0.31-1.74-0.06-3.26-2.56-3.26c-1.91,0-2.79,1.48-3.07,3.12l-0.35,1.97c-0.31,1.68,0.27,3.16,2.79,3.16
			C141.72,32.27,142.38,31.06,142.67,29.44z"/>
		<path d="M148.53,27l-1.15,6.56h-1.7l2.62-14.96h1.7l-0.92,5.29c0.66-0.82,1.66-1.37,3.05-1.37c2.83,0,4.18,1.99,3.73,4.47
			l-1.15,6.58H153l1.13-6.4c0.29-1.58-0.18-3.14-2.5-3.14C149.66,24.03,148.8,25.5,148.53,27z"/>
		<path d="M157.9,26.38c0.33-1.82,1.39-3.87,4.53-3.87c3.96,0,4.78,2.42,4.41,4.65l-0.45,2.73c-0.31,1.87-1.46,3.89-4.57,3.89
			c-3.96,0-4.82-2.42-4.41-4.67L157.9,26.38z M165.18,26.98c0.25-1.43-0.21-3.05-2.73-3.05c-1.91,0-2.66,1.37-2.89,2.6l-0.49,2.77
			c-0.25,1.43,0.18,3.07,2.73,3.07c1.89,0,2.67-1.39,2.89-2.62L165.18,26.98z"/>
		<path d="M175.24,25.73l0.04-0.25c0.16-0.94-0.29-1.68-2.38-1.68c-1.78,0-2.58,0.9-2.58,1.74c0,0.8,0.53,1.19,1.54,1.43l1.99,0.49
			c1.31,0.33,2.48,1.09,2.48,2.75c0,1.6-0.92,3.57-4.43,3.57c-3.51,0-4.39-1.33-4.26-2.85l0.02-0.25h1.66l-0.02,0.27
			c-0.06,0.82,0.49,1.5,2.58,1.5c2.17,0,2.79-1.02,2.79-1.91c0-0.96-0.49-1.37-1.54-1.62l-1.93-0.47c-1.46-0.35-2.48-1.11-2.48-2.81
			c0-1.25,1.05-3.14,4.32-3.14c3.16,0,4.16,1.41,3.87,2.99l-0.04,0.23H175.24z"/>
		<path d="M118.31,53.07c-0.41,2.4-1.8,4.63-5.35,4.63c-4.59,0-5.7-2.83-5.25-5.47l0.84-4.69c0.39-2.21,2.07-4.63,5.7-4.63
			c3.96,0,5.35,2.17,5.08,4.24l-0.04,0.33h-1.78l0.02-0.25c0.12-1.39-0.51-2.75-3.4-2.75c-2.4,0-3.53,1.58-3.79,3.05l-0.84,4.69
			c-0.33,1.91,0.27,3.89,3.34,3.89c2.32,0,3.38-1.33,3.65-2.75l0.29-1.66h-3.63l0.23-1.35h5.41L118.31,53.07z"/>
		<path d="M120.94,50.3c0.33-1.82,1.39-3.87,4.53-3.87c3.96,0,4.78,2.42,4.41,4.65l-0.45,2.73c-0.31,1.87-1.46,3.89-4.57,3.89
			c-3.96,0-4.82-2.42-4.41-4.67L120.94,50.3z M128.21,50.9c0.25-1.43-0.2-3.05-2.73-3.05c-1.91,0-2.67,1.37-2.89,2.6l-0.49,2.77
			c-0.25,1.43,0.18,3.07,2.73,3.07c1.89,0,2.67-1.39,2.89-2.62L128.21,50.9z"/>
		<path d="M131.25,57.48l2.62-14.96h1.72l-2.62,14.96H131.25z"/>
		<path d="M143.12,56.23c-0.64,0.9-1.68,1.48-3.18,1.48c-2.73,0-4.2-1.99-3.73-4.59l0.51-2.91c0.39-2.17,1.87-3.77,4.24-3.77
			c1.76,0,2.97,0.62,3.48,1.6l0.98-5.51h1.7l-2.62,14.96H143L143.12,56.23z M143.57,53.07l0.35-1.97c0.31-1.68-0.27-3.16-2.79-3.16
			c-1.87,0-2.52,1.21-2.81,2.83l-0.39,2.15c-0.31,1.74,0.06,3.26,2.56,3.26C142.4,56.19,143.28,54.71,143.57,53.07z"/>
		<path d="M107.04,76.33l-0.9,5.06h-1.8l2.54-14.35h4.67c3.83,0,5.25,1.76,5.25,3.87c0,2.46-1.17,5.41-5.66,5.41H107.04z
			 M108.41,68.58l-1.11,6.23h3.87c2.95,0,3.79-2.03,3.79-3.69c0-1.41-0.84-2.54-3.53-2.54H108.41z"/>
		<path d="M124.05,80.1c-0.68,0.94-1.78,1.52-3.34,1.52c-2.62,0-4.04-1.99-3.59-4.59l0.51-2.91c0.39-2.17,1.74-3.77,4.22-3.77
			c1.85,0,3.1,0.68,3.59,1.7l0.35-1.48h1.52l-1.89,10.82h-1.52L124.05,80.1z M124.48,76.99l0.35-2.07c0.27-1.62-0.27-3.05-2.77-3.05
			c-1.85,0-2.56,1.25-2.83,2.83l-0.37,2.15c-0.31,1.8,0.06,3.28,2.56,3.28C123.29,80.12,124.2,78.69,124.48,76.99z"/>
		<path d="M128.24,81.4l1.91-10.82h1.52l-0.21,1.78c0.8-1.17,2.17-1.99,4.18-1.99l-0.29,1.66h-0.31c-2.46,0-3.73,1.54-4.06,3.4
			l-1.05,5.96H128.24z"/>
		<path d="M140.86,81.4h-0.62c-3.32,0-4.08-1.7-3.71-3.77l1-5.7h-1.56l0.23-1.33h1.58l0.49-2.83h1.7l-0.49,2.83h2.93l-0.22,1.33
			h-2.95l-1.03,5.8c-0.25,1.43,0.23,2.25,2.34,2.25h0.57L140.86,81.4z"/>
		<path d="M144.25,81.4h-1.7l1.93-10.82h1.52l-0.14,1.29c0.66-0.9,1.7-1.52,3.18-1.52c2.83,0,4.18,1.99,3.73,4.47l-1.15,6.58h-1.72
			l1.13-6.4c0.29-1.58-0.18-3.14-2.5-3.14c-1.93,0-2.83,1.48-3.07,2.87L144.25,81.4z"/>
		<path d="M158.95,81.62c-3.59,0-4.65-2.38-4.26-4.59l0.49-2.83c0.33-1.82,1.48-3.85,4.55-3.85c3.87,0,4.61,2.44,4.22,4.67
			l-0.25,1.46h-7.24l-0.16,0.92c-0.25,1.39,0.29,2.85,2.81,2.85c1.8,0,2.46-1.15,2.58-1.82l0.06-0.33h1.6l-0.06,0.31
			C163.02,79.76,162,81.62,158.95,81.62z M156.71,75.12h5.58l0.1-0.53c0.25-1.37-0.29-2.89-2.69-2.89c-1.82,0-2.64,1.33-2.83,2.48
			L156.71,75.12z"/>
		<path d="M165.14,81.4l1.91-10.82h1.52l-0.21,1.78c0.8-1.17,2.17-1.99,4.18-1.99l-0.29,1.66h-0.31c-2.46,0-3.73,1.54-4.06,3.4
			l-1.05,5.96H165.14z"/>
	</g>
</g>
</svg>
