<svg id="Ebene_1" data-name="Ebene 1" xmlns="http://www.w3.org/2000/svg" viewBox="0 0 464.9 158.91"><defs><style>.cls-1{fill:#fff;}</style></defs><path class="cls-1" d="M14.25,103.81A9.93,9.93,0,0,0,4.14,112c-.45,2.28-.11,5.24,4.09,6.34l4.71,1.23c3.82,1,4.59,1.84,4.09,4.35-.75,3.79-5.14,4.21-7,4.21-1.19,0-3.36-.23-4.57-1.69a4.83,4.83,0,0,1-.69-4.14v-.24H1.34v.16c-.45,2.23-.6,4.59,1.2,6.75.69.83,2.13,2.57,7,2.57,2.26,0,9.75-.58,11.22-8,.74-3.75-.73-6.23-4.27-7.17l-6.56-1.71c-1.26-.33-2.48-1-2.07-3,.76-3.81,4.23-4.39,6.23-4.39a5.39,5.39,0,0,1,4,1.48,4.29,4.29,0,0,1,.75,3.56v.24h3.48v-.16c.27-1.76.44-4.31-1.18-6.19C19.74,104.59,17.45,103.81,14.25,103.81Z"/><path class="cls-1" d="M39.8,104.5h-11l-5.17,26.35h3.68s2.11-10.62,2.18-11h7.44c5.41,0,8.18-4.23,8.89-7.86a8.54,8.54,0,0,0,.18-1.76,5.86,5.86,0,0,0-1.22-3.79A6.1,6.1,0,0,0,39.8,104.5Zm-8,3.41h6.43a4.1,4.1,0,0,1,3.28,1.1,2.83,2.83,0,0,1,.57,1.83A5.65,5.65,0,0,1,42,112c-.61,3.06-2.39,4.49-5.64,4.49H30.07c.09-.46,1.64-8.26,1.7-8.58Z"/><polygon class="cls-1" points="51.62 104.5 46.4 130.85 50.09 130.85 55.31 104.5 55.06 104.5 51.62 104.5"/><path class="cls-1" d="M78.68,104.5H58.63L57.94,108h8.18c-.1.49-4.53,22.83-4.53,22.83h3.69s4.46-22.5,4.53-22.83H78Z"/><path class="cls-1" d="M98.48,107.88c0-.1.65-3.14.65-3.14v-.24H80.85l-.7,3.52H93.63L75.19,127.58c0,.1-.63,3-.63,3l0,.25H94l.7-3.52H80Z"/><path class="cls-1" d="M120.79,104.5l-11,21.53c-.12-1.08-2.51-21.53-2.51-21.53h-5l-5.23,26.35h3.58l3-15.46.31-1.68.69-3.63L107,130.87h3.62l10.59-20.74c-.29,1.38-.73,3.52-.73,3.52l-.36,1.65-3.07,15.57h3.57l5.22-26.35h-5Z"/><polygon class="cls-1" points="146.21 97.89 145.96 97.89 142.73 97.89 141.91 101.99 145.4 101.99 146.21 97.89"/><path class="cls-1" d="M149.9,104.5h-3.43l-3.28,16.57c-1.2,6-5.26,6.94-7.57,6.94a4.76,4.76,0,0,1-3.78-1.48c-1-1.18-1.21-3-.72-5.45l3.28-16.58h-3.69L127.25,122c-.57,2.86-.11,5.36,1.29,7.07s3.5,2.5,6.36,2.5c7.3,0,10.92-5.15,11.87-10l3.39-17.08Z"/><polygon class="cls-1" points="140.76 97.89 140.51 97.89 137.27 97.89 136.46 101.99 139.95 101.99 140.76 97.89"/><path class="cls-1" d="M158.84,104.5h-3.68l-5.23,26.35h15.95l.7-3.52H154.32C154.42,126.84,158.84,104.5,158.84,104.5Z"/><path class="cls-1" d="M177.8,104.5h-3.69l-5.22,26.35h16l.69-3.52h-12.3C173.37,126.84,177.8,104.5,177.8,104.5Z"/><path class="cls-1" d="M210.74,108l.69-3.52h-18l-5.21,26.35h18.26l.7-3.52H192.57l1.64-8.25h13.23l.69-3.53H194.9l1.49-7.53Z"/><path class="cls-1" d="M227.51,104.5H216.17L211,130.85h3.68s2.14-10.8,2.21-11.13h7.79a3.61,3.61,0,0,1,2.86,1c.72.88.57,2.22.33,3.42a34.68,34.68,0,0,0-.72,6.57v.18h4.36l.18-.88-.11-.08a1.32,1.32,0,0,1-.74-1.29,6.87,6.87,0,0,1,.13-1.1l.72-4.7a9,9,0,0,0,.15-1.64,3.13,3.13,0,0,0-1.87-3.28,8.31,8.31,0,0,0,4.4-6.17,9.44,9.44,0,0,0,.19-1.85,5,5,0,0,0-1-3.29C232.3,105.2,230.31,104.5,227.51,104.5Zm-8.33,3.41h8a3.7,3.7,0,0,1,2.87,1,2.91,2.91,0,0,1,.55,1.84,6.89,6.89,0,0,1-.14,1.29c-.77,3.86-3.56,4.32-5.6,4.32h-7.33C217.63,115.85,219.12,108.23,219.18,107.91Z"/><path class="cls-1" d="M260.78,104.5H257l-14.46,26.35h3.85l4-7.55h9.39c0,.35.89,7.55.89,7.55h4l-3.68-26.35Zm-8.57,15.28,5.71-10.63c.12,1,1.17,10.21,1.22,10.63Z"/><path class="cls-1" d="M281.63,107.33c2.64,0,5.81.92,5.95,5.26v.2h3.56v-.19a7.79,7.79,0,0,0-1.91-6.09,9.32,9.32,0,0,0-6.83-2.7c-8,0-13,7-14.32,13.61-.5,2.51-1.42,7.18,1.68,11.11,1.07,1.4,2.82,3,7,3a12.12,12.12,0,0,0,8.59-3.8c0,.68.1,3.11.1,3.11h2.49l2.83-14.29h-11L279.1,120h7.53a9.85,9.85,0,0,1-3.88,6.52,8.33,8.33,0,0,1-5.16,1.63,5.88,5.88,0,0,1-4.77-1.87c-1.42-1.73-1.74-4.61-.95-8.58C273.25,110.54,277.77,107.33,281.63,107.33Z"/><path class="cls-1" d="M378.07,1.91a27.44,27.44,0,0,1,5.73,0c.92,0,1.83.08,2.74.19a50.94,50.94,0,0,1,21.91,7.68h27.71v1.75H411.05a59.29,59.29,0,0,1,5.48,4.65h28.1v1.73h-26.4a50.9,50.9,0,0,1,3.6,4.3,1.07,1.07,0,0,0,.28.28c.54.05,1.09,0,1.63,0h26.9v1.68h-27.3a4,4,0,0,0,.46.89c.94,1.38,1.77,2.85,2.58,4.32H456v1.73H427.28a52.67,52.67,0,0,1,2.1,5h29.25v1.78H430c.57,1.67,1,3.39,1.5,5.09h29.1v1.73H431.91c.28,1.53.53,3.06.78,4.6h29.88V51H432.8a14.36,14.36,0,0,1,.17,2.85v2.23h30.56V57.8H433c-.15,1.54-.25,3.08-.48,4.61h30.59v1.65H432.28c-.44,1.69-.67,3.44-1.21,5.11h30.61v1.75H430.54c-.35,1.46-1,2.79-1.45,4.21h30.32v1.7H428.29a46.59,46.59,0,0,1-2.62,5h30.86v1.72h-32a44.75,44.75,0,0,1-3.9,5.16h30.95v1.74H420.42a8.51,8.51,0,0,0-1.43.06c-1.54,1.47-2.88,3.21-4.3,4.79h30.94V97H414.87q-.74,0-1.47,0a3.8,3.8,0,0,0-.52.62c-1.08,1.45-2.14,2.92-3.11,4.45h30.81v1.68H408.69a44.48,44.48,0,0,0-2.57,5h31.06v1.75H405.35a38.83,38.83,0,0,0-1.54,5.06h30.58v1.63H403.47c-.42,1.67-.65,3.39-1,5.09h30V124H402.16c-.36,1.68-.61,3.4-1,5.08H431.6v1.75H370.35V129.1h23.28c.27-1.7.67-3.38.93-5.09H371.79v-1.62h23c.19-.89.32-1.8.5-2.69a19.33,19.33,0,0,0,.38-2.4H373v-1.64H396.1c.37-1.7.85-3.37,1.27-5.06H357.1v-1.75H398a51.59,51.59,0,0,1,2.2-5H358.13v-1.71h43c.94-1.74,2-3.41,3.08-5.06-.92-.06-1.83,0-2.76,0H360V95.33h45.33c1.13-1.65,2.31-3.25,3.5-4.85H361.43V88.72h48.89c1.49-1.79,3.16-3.41,4.77-5.09H348.24V81.94h68.23a45.56,45.56,0,0,0,3.37-5H350.19V75.18h70.6c.67-1.38,1.32-2.77,1.87-4.21H352.45V69.22h70.86c.53-1.67,1-3.37,1.36-5.08H354.42V62.47h70.51a27.52,27.52,0,0,0,.47-4.62H356.74V56.1h68.79a18.69,18.69,0,0,0-.07-2.24,22.83,22.83,0,0,0-.24-2.85H358.85V49.39H425.1a45.21,45.21,0,0,0-.9-4.61H361.12V43h62.62a7,7,0,0,0-.26-1.17c-.42-1.31-.89-2.61-1.36-3.91H363.37V36.14h57.95a49.93,49.93,0,0,0-2.54-5H366.1V29.41h51.61a48.24,48.24,0,0,0-3.67-5,.68.68,0,0,0-.62-.22h-42.5V22.53H412.3c-.48-.5-1-1-1.46-1.45-1.1-1.14-2.41-2.12-3.6-3.14h-30V16.21h27.5A41.16,41.16,0,0,0,396.57,12a4.69,4.69,0,0,0-1.6-.47h-9.58V9.78a12.88,12.88,0,0,0,2.24-.08l-2.69-.26c-1-.14-2-.08-3-.17-1.38-.11-2.72.07-4.09.08a45.73,45.73,0,0,0-9,1.5A40.81,40.81,0,0,0,352.16,20a45.1,45.1,0,0,0-8.73,10.73,46.75,46.75,0,0,0-3.38,7.75c-3.42,9.29-6.79,18.61-10.23,27.89-1.43,4-2.76,8-3.87,12.07h4.36a14.07,14.07,0,0,1,4.83.51,5.43,5.43,0,0,1,3.41,4.12,10.19,10.19,0,0,1-.55,4.45c-.77,2.63-1.4,5.31-2,8-.58,2.27-1.19,4.52-1.68,6.81a11.22,11.22,0,0,0-.33,2.88,2.65,2.65,0,0,0,.93.13H339a18.15,18.15,0,0,1,6.43.68,7.1,7.1,0,0,1,3.5,2.39A6.37,6.37,0,0,1,350,112a24.17,24.17,0,0,1-1,4.63c-.53,2.13-.93,4.28-1.44,6.42s-.88,4.1-1.37,6.14a21.8,21.8,0,0,0-.48,2.38,9.33,9.33,0,0,1-1.83,0c-2,0-4-.07-6-.13,1.42-6.18,2.79-12.38,4.21-18.56-2.74-.13-5.48-.07-8.22-.08a11.1,11.1,0,0,1-3.4-.25,5.27,5.27,0,0,1-2.18-1.7,8.21,8.21,0,0,1-1.82-4.74c-.3-2.53.41-5.16,1-7.6.5-1.88.9-3.78,1.38-5.66.6-2.28,1.09-4.58,1.72-6.85h-6a7.42,7.42,0,0,1-4.2-.93,5.42,5.42,0,0,1-2.09-2.47,6.35,6.35,0,0,1-.28-3.4c.62-2.27,1.17-4.57,1.81-6.84.84-2.92,1.91-5.78,3-8.61q4.51-12.31,9.07-24.63c1-2.91,2.07-5.82,3.26-8.66a40.45,40.45,0,0,1,3.74-6.26A52.65,52.65,0,0,1,357.71,7.32a50.22,50.22,0,0,1,16.78-5.13,28.47,28.47,0,0,1,3.58-.28Z"/><path class="cls-1" d="M407.15,2.94h8.19V4.68h-8.19Z"/><path class="cls-1" d="M343.84,47.11a5.19,5.19,0,0,1,5.05,7.82,5,5,0,0,1-4.51,2.46,4.91,4.91,0,0,1-3.42-1.3,5.19,5.19,0,0,1,2.88-9Z"/><path class="cls-1" d="M10.88,142v1.83L3.65,156.31H11v1.76H1.58V156.4l7.23-12.64H2V142Z"/><path class="cls-1" d="M16.73,146v8.44q0,2.31,1.77,2.31a2.32,2.32,0,0,0,2.39-2.36V146h1.89v12.06H21v-1.42h-.05a2.78,2.78,0,0,1-1.22,1.29,3.52,3.52,0,0,1-1.72.44,3.16,3.16,0,0,1-2.38-.81,3.82,3.82,0,0,1-.77-2.7V146Z"/><path class="cls-1" d="M30.76,145.69a3.75,3.75,0,0,1,2.77.89,3.93,3.93,0,0,1,.9,2.83v.13H32.54a3.13,3.13,0,0,0-.4-1.81,1.59,1.59,0,0,0-1.38-.55,1.7,1.7,0,0,0-2,1.84,1.45,1.45,0,0,0,.56,1.21A5,5,0,0,0,31,151a6.27,6.27,0,0,1,3,1.38,3.29,3.29,0,0,1,.71,2.24,3.65,3.65,0,0,1-1,2.77,4,4,0,0,1-2.88,1c-2.74,0-4.12-1.38-4.12-4.14v-.13h1.89a3.16,3.16,0,0,0,.58,2.12,2,2,0,0,0,1.65.67,2.11,2.11,0,0,0,1.43-.5,2,2,0,0,0,.6-1.5,1.79,1.79,0,0,0-.51-1.34,4.53,4.53,0,0,0-1.83-.91,9.35,9.35,0,0,1-2.41-1,2.41,2.41,0,0,1-.91-1.15,4,4,0,0,1-.26-1.47A3.05,3.05,0,0,1,28,146.57,4.34,4.34,0,0,1,30.76,145.69Z"/><path class="cls-1" d="M42.42,145.69a3.7,3.7,0,0,1,2.84,1.06,4.37,4.37,0,0,1,1,2.93H44.38a3,3,0,0,0-.51-1.84,1.68,1.68,0,0,0-1.4-.66,1.86,1.86,0,0,0-1.83,1.21,10.71,10.71,0,0,0-.54,4q0,4.5,2.3,4.5c1.29,0,2-1,2-3h1.89a5.1,5.1,0,0,1-1.08,3.28,3.58,3.58,0,0,1-2.88,1.22,3.59,3.59,0,0,1-3.16-1.45,8.33,8.33,0,0,1-1-4.73,9,9,0,0,1,1.06-4.93A3.65,3.65,0,0,1,42.42,145.69Z"/><path class="cls-1" d="M52.23,142v5.38h0a3,3,0,0,1,1.2-1.19,3.29,3.29,0,0,1,1.71-.5,3,3,0,0,1,2.35.83,3.8,3.8,0,0,1,.75,2.59v9H56.39v-8.42a3.07,3.07,0,0,0-.41-1.76,1.56,1.56,0,0,0-1.36-.58,2.37,2.37,0,0,0-1.68.66,2.21,2.21,0,0,0-.71,1.71v8.39H50.34V142Z"/><path class="cls-1" d="M64.76,146v8.44c0,1.54.59,2.31,1.78,2.31a2.32,2.32,0,0,0,2.39-2.36V146h1.89v12.06H69v-1.42h0a2.75,2.75,0,0,1-1.23,1.29,3.5,3.5,0,0,1-1.72.44,3.15,3.15,0,0,1-2.37-.81,3.82,3.82,0,0,1-.78-2.7V146Zm1.15-4.39v2.27H64.16v-2.27Zm3.64,0v2.27H67.8v-2.27Z"/><path class="cls-1" d="M78.8,145.69a3.78,3.78,0,0,1,2.77.89,4,4,0,0,1,.9,2.83v.13H80.58a3.12,3.12,0,0,0-.41-1.81,1.57,1.57,0,0,0-1.37-.55,1.7,1.7,0,0,0-2,1.84,1.45,1.45,0,0,0,.56,1.21,5,5,0,0,0,1.66.75,6.18,6.18,0,0,1,3,1.38,3.24,3.24,0,0,1,.71,2.24,3.64,3.64,0,0,1-1,2.77,4,4,0,0,1-2.88,1q-4.12,0-4.12-4.14v-.13h1.89a3.22,3.22,0,0,0,.57,2.12,2.07,2.07,0,0,0,1.66.67,2.13,2.13,0,0,0,1.43-.5,1.92,1.92,0,0,0,.59-1.5,1.82,1.82,0,0,0-.5-1.34,4.51,4.51,0,0,0-1.84-.91,9.52,9.52,0,0,1-2.41-1,2.53,2.53,0,0,1-.91-1.15,4.21,4.21,0,0,1-.26-1.47A3.11,3.11,0,0,1,76,146.57,4.37,4.37,0,0,1,78.8,145.69Z"/><path class="cls-1" d="M90.07,145.69a3.76,3.76,0,0,1,2.77.89,3.93,3.93,0,0,1,.9,2.83v.13H91.85a3.13,3.13,0,0,0-.4-1.81,1.59,1.59,0,0,0-1.38-.55A1.7,1.7,0,0,0,88.12,149a1.45,1.45,0,0,0,.56,1.21,5,5,0,0,0,1.66.75,6.27,6.27,0,0,1,3,1.38,3.29,3.29,0,0,1,.7,2.24,3.64,3.64,0,0,1-1,2.77,4,4,0,0,1-2.88,1q-4.12,0-4.12-4.14v-.13h1.89a3.16,3.16,0,0,0,.58,2.12,2,2,0,0,0,1.65.67,2.11,2.11,0,0,0,1.43-.5,1.92,1.92,0,0,0,.59-1.5,1.78,1.78,0,0,0-.5-1.34,4.51,4.51,0,0,0-1.84-.91,9.25,9.25,0,0,1-2.4-1,2.41,2.41,0,0,1-.91-1.15,4,4,0,0,1-.26-1.47,3.08,3.08,0,0,1,1-2.48A4.37,4.37,0,0,1,90.07,145.69Z"/><path class="cls-1" d="M101.84,145.69a3.61,3.61,0,0,1,3,1.29,6.91,6.91,0,0,1,1,4.23v1H99.52v.41a7.2,7.2,0,0,0,.54,3.23,1.88,1.88,0,0,0,1.78,1,1.71,1.71,0,0,0,1.53-.76,3.49,3.49,0,0,0,.52-2h1.89a4.44,4.44,0,0,1-1.1,3,3.75,3.75,0,0,1-2.93,1.23,3.56,3.56,0,0,1-3.2-1.48,8.56,8.56,0,0,1-1-4.7,8.84,8.84,0,0,1,1.08-4.94A3.65,3.65,0,0,1,101.84,145.69Zm2,5.09v-.52c0-2-.7-3.08-2.09-3.08a1.82,1.82,0,0,0-1.66.92,4.7,4.7,0,0,0-.55,2.39v.29Z"/><path class="cls-1" d="M121.93,142c2.25,0,3.38,1,3.38,3a3.37,3.37,0,0,1-.59,1.85,10.4,10.4,0,0,1-2.2,2.18l3.17,4.54a9.69,9.69,0,0,0,.63-3.12h1.76a10,10,0,0,1-.39,2.41,6.94,6.94,0,0,1-.92,2.27l2.07,2.9H126.7l-1.08-1.51a7.23,7.23,0,0,1-1.9,1.41,4.92,4.92,0,0,1-2.06.41,4.63,4.63,0,0,1-3.54-1.31,4.47,4.47,0,0,1-1.23-3.16,5.11,5.11,0,0,1,2.25-4.19l1.11-.83-.84-1.33a4.67,4.67,0,0,1-.83-2.41,3,3,0,0,1,1-2.25A3.34,3.34,0,0,1,121.93,142Zm-3.06,11.77a3,3,0,0,0,.81,2.17,2.87,2.87,0,0,0,2.14.82,3.16,3.16,0,0,0,1.43-.33,5.32,5.32,0,0,0,1.45-1.22l-3.53-5.11A4.26,4.26,0,0,0,118.87,153.77Zm1.47-8.71a2.53,2.53,0,0,0,.26,1.06,10.92,10.92,0,0,0,1.09,1.76l.63-.59a3.13,3.13,0,0,0,1.23-2.23,1.53,1.53,0,0,0-.43-1.13,1.59,1.59,0,0,0-1.19-.44,1.51,1.51,0,0,0-1.15.44A1.5,1.5,0,0,0,120.34,145.06Z"/><path class="cls-1" d="M148.08,142v1.76h-6.32v5h6v1.75h-6v7.52h-2V142Z"/><path class="cls-1" d="M155.12,145.69a3.72,3.72,0,0,1,3.26,1.54,8.49,8.49,0,0,1,1.08,4.81c0,4.23-1.44,6.34-4.34,6.34a3.71,3.71,0,0,1-3.26-1.54,8.48,8.48,0,0,1-1.08-4.8,8.57,8.57,0,0,1,1.06-4.78A3.67,3.67,0,0,1,155.12,145.69Zm-.92-4.07v2.27h-1.76v-2.27ZM152.76,152a9.36,9.36,0,0,0,.54,3.65,1.83,1.83,0,0,0,1.78,1.21,1.91,1.91,0,0,0,1.83-1.16,8.9,8.9,0,0,0,.57-3.7,8.65,8.65,0,0,0-.59-3.76,1.94,1.94,0,0,0-1.81-1.1,1.86,1.86,0,0,0-1.75,1.15A8.86,8.86,0,0,0,152.76,152Zm5.08-10.42v2.27h-1.75v-2.27Z"/><path class="cls-1" d="M168,145.69a2.09,2.09,0,0,1,.84.14v1.84a5.06,5.06,0,0,0-1-.09,2.32,2.32,0,0,0-1.73.81,2.87,2.87,0,0,0-.77,2v7.7h-1.89V146h1.89v1.8h0C166,146.4,166.9,145.69,168,145.69Z"/><path class="cls-1" d="M180.19,142v16.07h-1.8v-1.49h0a2.41,2.41,0,0,1-1,1.3,2.89,2.89,0,0,1-1.65.5q-3.92,0-3.92-6.36t3.81-6.33a2.88,2.88,0,0,1,1.62.49,2.57,2.57,0,0,1,1,1.2h.05V142Zm-6.42,10a9,9,0,0,0,.53,3.63,1.76,1.76,0,0,0,1.7,1.09,1.89,1.89,0,0,0,1.89-1.14,9.15,9.15,0,0,0,.52-3.58,8.26,8.26,0,0,0-.59-3.57,1.94,1.94,0,0,0-1.84-1.16,1.75,1.75,0,0,0-1.68,1.11A9,9,0,0,0,173.77,152Z"/><path class="cls-1" d="M188.67,145.69a3.59,3.59,0,0,1,3,1.29,6.84,6.84,0,0,1,1,4.23v1h-6.35v.41a7.2,7.2,0,0,0,.54,3.23,1.87,1.87,0,0,0,1.78,1,1.74,1.74,0,0,0,1.53-.76,3.57,3.57,0,0,0,.52-2h1.89a4.4,4.4,0,0,1-1.11,3,3.73,3.73,0,0,1-2.92,1.23,3.59,3.59,0,0,1-3.21-1.48,8.58,8.58,0,0,1-1-4.7,8.84,8.84,0,0,1,1.08-4.94A3.64,3.64,0,0,1,188.67,145.69Zm2.05,5.09v-.52c0-2-.7-3.08-2.1-3.08a1.81,1.81,0,0,0-1.65.92,4.6,4.6,0,0,0-.55,2.39v.29Z"/><path class="cls-1" d="M201.43,145.69a2,2,0,0,1,.83.14v1.84a5.06,5.06,0,0,0-1-.09,2.28,2.28,0,0,0-1.72.81,2.83,2.83,0,0,0-.78,2v7.7h-1.89V146h1.89v1.8h0C199.45,146.4,200.32,145.69,201.43,145.69Z"/><path class="cls-1" d="M213.6,142v16.07h-1.8v-1.49h-.05a2.41,2.41,0,0,1-1,1.3,2.87,2.87,0,0,1-1.65.5q-3.92,0-3.92-6.36t3.81-6.33a2.88,2.88,0,0,1,1.62.49,2.57,2.57,0,0,1,1,1.2h.05V142Zm-6.42,10a9,9,0,0,0,.53,3.63,1.77,1.77,0,0,0,1.7,1.09,1.89,1.89,0,0,0,1.89-1.14,9.15,9.15,0,0,0,.52-3.58,8.26,8.26,0,0,0-.59-3.57,1.94,1.94,0,0,0-1.84-1.16,1.76,1.76,0,0,0-1.68,1.11A9,9,0,0,0,207.18,152Z"/><path class="cls-1" d="M222,145.69a4.18,4.18,0,0,1,2.77.77,2.86,2.86,0,0,1,.89,2.31V156a1.2,1.2,0,0,0,.14.7.6.6,0,0,0,.47.15.75.75,0,0,0,.43-.11v1.35a6.57,6.57,0,0,1-1.24.11,1.5,1.5,0,0,1-1.21-.39,2,2,0,0,1-.37-1.16h0a3.33,3.33,0,0,1-1.24,1.26,3.52,3.52,0,0,1-4.12-.44,3.74,3.74,0,0,1-.83-2.6,3.15,3.15,0,0,1,2.34-3.35l2.48-.74a2.64,2.64,0,0,0,1.07-.53,1.84,1.84,0,0,0,.3-1.25c0-1.21-.65-1.82-1.94-1.82s-2.07.79-2.07,2.38v.09h-1.89v-.09a3.93,3.93,0,0,1,1-2.93A4.3,4.3,0,0,1,222,145.69Zm-2.37,9.14q0,2.07,1.71,2.07a2.38,2.38,0,0,0,1.69-.7,2.1,2.1,0,0,0,.74-1.55V151.5a3.8,3.8,0,0,1-1.39.72,8.7,8.7,0,0,0-2,.76,1.78,1.78,0,0,0-.61.73A3,3,0,0,0,219.58,154.83Z"/><path class="cls-1" d="M234.84,145.69a2,2,0,0,1,.83.14v1.84a5.06,5.06,0,0,0-1-.09,2.28,2.28,0,0,0-1.72.81,2.92,2.92,0,0,0-.78,2v7.7h-1.89V146h1.89v1.8h0C232.86,146.4,233.73,145.69,234.84,145.69Z"/><path class="cls-1" d="M241.07,142v16.07h-1.89V142Z"/><path class="cls-1" d="M249.66,145.69a3.61,3.61,0,0,1,3,1.29,6.91,6.91,0,0,1,1,4.23v1h-6.34v.41a7.2,7.2,0,0,0,.54,3.23,1.87,1.87,0,0,0,1.77,1,1.71,1.71,0,0,0,1.53-.76,3.49,3.49,0,0,0,.52-2h1.89a4.44,4.44,0,0,1-1.1,3,3.75,3.75,0,0,1-2.93,1.23,3.58,3.58,0,0,1-3.2-1.48,8.58,8.58,0,0,1-1-4.7,8.84,8.84,0,0,1,1.08-4.94A3.63,3.63,0,0,1,249.66,145.69Zm2.05,5.09v-.52c0-2-.7-3.08-2.09-3.08a1.79,1.79,0,0,0-1.65.92,4.59,4.59,0,0,0-.56,2.39v.29Z"/><path class="cls-1" d="M259.77,142v5.38h0a3.08,3.08,0,0,1,1.19-1.19,3.34,3.34,0,0,1,1.71-.5,3,3,0,0,1,2.35.83,3.75,3.75,0,0,1,.76,2.59v9h-1.89v-8.42a3,3,0,0,0-.42-1.76,1.55,1.55,0,0,0-1.36-.58,2.41,2.41,0,0,0-1.68.66,2.2,2.2,0,0,0-.7,1.71v8.39h-1.89V142Z"/><path class="cls-1" d="M274.3,145.69a3.61,3.61,0,0,1,3,1.29,6.91,6.91,0,0,1,1,4.23v1H272v.41a7.2,7.2,0,0,0,.54,3.23,1.88,1.88,0,0,0,1.78,1,1.71,1.71,0,0,0,1.53-.76,3.49,3.49,0,0,0,.52-2h1.89a4.44,4.44,0,0,1-1.1,3,3.75,3.75,0,0,1-2.93,1.23,3.56,3.56,0,0,1-3.2-1.48,8.56,8.56,0,0,1-1-4.7,8.84,8.84,0,0,1,1.08-4.94A3.65,3.65,0,0,1,274.3,145.69Zm2.05,5.09v-.52c0-2-.7-3.08-2.09-3.08a1.82,1.82,0,0,0-1.66.92,4.6,4.6,0,0,0-.55,2.39v.29Z"/><path class="cls-1" d="M287.31,145.69a3.22,3.22,0,0,1,2.35.8,3.69,3.69,0,0,1,.8,2.67v8.91h-1.89v-8.42a3,3,0,0,0-.42-1.76,1.55,1.55,0,0,0-1.36-.58,2.33,2.33,0,0,0-1.69.69,2.3,2.3,0,0,0-.7,1.68v8.39h-1.89V146h1.8v1.42h.05a2.84,2.84,0,0,1,1.16-1.25A3.32,3.32,0,0,1,287.31,145.69Z"/></svg>