<?xml version="1.0" encoding="utf-8"?>
<!-- Generator: Adobe Illustrator 25.4.1, SVG Export Plug-In . SVG Version: 6.00 Build 0)  -->
<svg version="1.1" xmlns="http://www.w3.org/2000/svg" xmlns:xlink="http://www.w3.org/1999/xlink" x="0px" y="0px"
	 viewBox="0 0 383.9 308.1" style="enable-background:new 0 0 383.9 308.1;" xml:space="preserve">
<style type="text/css">
	.st0{display:none;}
	.st1{display:inline;fill:#004550;stroke:#1D1D1B;stroke-width:1.8305;stroke-miterlimit:10;}
	.st2{fill:url(#SVGID_1_);}
	.st3{fill:url(#SVGID_00000109742884002565129080000005563727091187187111_);}
	.st4{fill:#FFFFFF;stroke:url(#SVGID_00000163788927133913953520000015653262753660106921_);stroke-width:8;stroke-miterlimit:10;}
	.st5{fill:#00B336;}
	.st6{fill:#FFFFFF;}
	.st7{fill:url(#SVGID_00000048480261350285909910000018129840604538109071_);}
	.st8{fill:#6D6E71;}
	.st9{fill:url(#SVGID_00000109025476436119926590000014210273876390732444_);}
	.st10{fill:url(#SVGID_00000150801501672749905680000012964864589334845576_);}
	
		.st11{fill:#FFFFFF;stroke:url(#SVGID_00000152252792378194156190000017520641591487116934_);stroke-width:10;stroke-miterlimit:10;}
	.st12{fill:#712E03;}
	.st13{fill:url(#SVGID_00000034799105316268473450000018340980611105949360_);}
	.st14{fill:url(#SVGID_00000096769912880673857300000013850484434281954988_);}
	
		.st15{fill:#FFFFFF;stroke:url(#SVGID_00000057140424935293523410000015428692281083939217_);stroke-width:10;stroke-miterlimit:10;}
	.st16{fill:#3F3F3F;}
	.st17{fill:url(#SVGID_00000026139948231666886930000007088540976580415892_);}
	.st18{fill:url(#SVGID_00000073696618342845510420000010971595359896943235_);}
	
		.st19{fill:#FFFFFF;stroke:url(#SVGID_00000160181388219630705120000011642485844798498696_);stroke-width:10;stroke-miterlimit:10;}
	.st20{fill:url(#SVGID_00000010281376384677829090000015679509019773872807_);}
	.st21{fill:url(#SVGID_00000002356689830780281910000004308095370426097595_);}
	.st22{fill:#FFFFFF;stroke:url(#SVGID_00000099636825381625229120000006610490762174597796_);stroke-width:8;stroke-miterlimit:10;}
	.st23{fill:url(#SVGID_00000093140041174787690590000012024637366466868662_);}
	.st24{fill:url(#SVGID_00000158006755193883683900000006997272226303721144_);}
	.st25{fill:url(#SVGID_00000052076649486927848730000007104454744341570992_);}
	.st26{fill:#FFFFFF;stroke:url(#SVGID_00000088849989195663691430000013282770007760451001_);stroke-width:8;stroke-miterlimit:10;}
	.st27{fill:url(#SVGID_00000109729924211933140880000015022904642114306209_);}
	.st28{fill:url(#SVGID_00000064338665844115885300000008932714343961501083_);}
	
		.st29{fill:#FFFFFF;stroke:url(#SVGID_00000049916975668142949400000014604144496902292623_);stroke-width:10;stroke-miterlimit:10;}
	.st30{fill:url(#SVGID_00000027598154238738815820000014037053143492940162_);}
	.st31{fill:url(#SVGID_00000018923217218215195650000007967853344020083601_);}
	.st32{fill:url(#SVGID_00000081646131233461175100000003601116367128665768_);}
	.st33{fill:url(#SVGID_00000134248187379873964020000015349172999060440749_);}
	.st34{fill:url(#SVGID_00000129899667031091118360000003833647596385232561_);}
	
		.st35{fill:#FFFFFF;stroke:url(#SVGID_00000139979228653953280170000004846928785185967495_);stroke-width:10;stroke-miterlimit:10;}
	.st36{fill:url(#SVGID_00000033359699100244707650000011882817529674589324_);}
	.st37{fill:url(#SVGID_00000016070496271054654290000012564509600912128388_);}
	.st38{fill:#FFFFFF;stroke:url(#SVGID_00000028293445045896705890000002302471941240560529_);stroke-width:8;stroke-miterlimit:10;}
	.st39{fill:none;stroke:#FFFFFF;stroke-width:8;stroke-miterlimit:10;}
	.st40{fill:url(#SVGID_00000071547453718222738880000000334891111892513721_);}
	.st41{fill:url(#SVGID_00000129918061291994958340000011192587665922469511_);}
	.st42{fill:url(#SVGID_00000042714507141904786320000012639662104487177134_);}
	.st43{fill:url(#SVGID_00000039135471753801987200000018171512860277353901_);}
	.st44{fill:url(#SVGID_00000093888061775354004510000012380613754141274272_);}
	.st45{fill:url(#SVGID_00000078733816700178830310000014633063128118182581_);}
	.st46{fill:url(#SVGID_00000006670931708342009220000006094977620515317919_);}
	.st47{fill:url(#SVGID_00000181778207328732404610000000347015333539946681_);}
	.st48{fill:url(#SVGID_00000062910973256314572240000011886141717308639886_);}
	.st49{fill:url(#SVGID_00000178921069234482915830000013464492706480912042_);}
	.st50{fill:url(#SVGID_00000080892125522572600440000005505731834914840965_);}
	.st51{fill:url(#SVGID_00000050635007733734098680000010117034716294978688_);}
	.st52{fill:url(#SVGID_00000029735279495880610460000004842776415684505519_);}
	.st53{fill:url(#SVGID_00000006680293287110647750000005345497115620773527_);}
	.st54{fill:url(#SVGID_00000016040799995827782960000013743241481498557080_);}
	.st55{fill:url(#SVGID_00000109749200303532638680000005691469224324363425_);}
	.st56{fill:url(#SVGID_00000170237957086827172720000005769470563130633405_);}
	.st57{fill:url(#SVGID_00000044167999642890568530000014549445037601856161_);}
	.st58{fill:url(#SVGID_00000052802679620316204000000013463704775477285543_);}
	.st59{fill:url(#SVGID_00000183227087179835514610000010714956328254248592_);}
	.st60{fill:url(#SVGID_00000173149294457042289690000013152510937405239227_);}
	.st61{fill:url(#SVGID_00000139280834855258128360000014058351249218067088_);}
	.st62{fill:url(#SVGID_00000094583010630168545070000001751837711013885573_);}
	.st63{fill:url(#SVGID_00000025404767017290110390000006891569003658381734_);}
	.st64{fill:url(#SVGID_00000018214749052492655870000007071011979823969964_);}
	.st65{fill:url(#SVGID_00000111187284298697652880000010649295380650668979_);}
	.st66{fill:url(#SVGID_00000031188763784011461350000018241165407670394289_);}
	.st67{fill:url(#SVGID_00000035526205392684729630000018141641364958066588_);}
	.st68{fill:url(#SVGID_00000017508156900044363780000012458432280919678118_);}
	.st69{fill:url(#SVGID_00000157302458620460582520000007767420247014109069_);}
	.st70{fill:url(#SVGID_00000157271213816137872200000014977421435223395473_);}
	.st71{fill:url(#SVGID_00000048497157689928968950000002309074013619742886_);}
	.st72{fill:url(#SVGID_00000168812845000386177630000011669126981366802851_);}
	.st73{fill:url(#SVGID_00000071521168307177107600000010425318526678913207_);}
	.st74{fill:url(#SVGID_00000073002838111137972510000001189101828888381840_);}
	.st75{fill:url(#SVGID_00000148660053369319631800000002049132324679753373_);}
	.st76{fill:url(#SVGID_00000116196387478034025240000000549476344764858254_);}
	.st77{fill:url(#SVGID_00000126289085956760846350000010412011720385347263_);}
	.st78{fill:url(#SVGID_00000000216751888904898230000018187411383748201389_);}
	.st79{fill:url(#SVGID_00000116193182051761128760000000111748545891262374_);}
	.st80{fill:url(#SVGID_00000173874589599987889780000010884189800565029813_);}
	.st81{fill:url(#SVGID_00000073698967811828170250000005136858203327197626_);}
	.st82{fill:url(#SVGID_00000054250908940524000700000011372035728768464773_);}
	.st83{fill:url(#SVGID_00000155842478560895352260000011671616891217893265_);}
</style>
<g id="Layer_2" class="st0">
	<rect x="-551.5" y="-527.6" class="st1" width="7764.5" height="914.7"/>
</g>
<g id="Layer_1">
	<g>
		<path class="st6" d="M126.3,308.1c-12.4,0-22.4-10.1-22.4-22.4v-38.1L49,192.8v-43.2L8.1,108.8C3,104.5,0,98.2,0,91.5V22.4
			C0,10.1,10.1,0,22.4,0h216c12.2,0,22.1,9.7,22.4,21.8H273l74.4,74.3V160l28.6,28.6c0.3,0.3,0.6,0.7,1,1c4.5,4.2,7,10.1,7,16.3
			v79.7c0,12.4-10.1,22.4-22.4,22.4H126.3z"/>
		<g>
			
				<linearGradient id="SVGID_1_" gradientUnits="userSpaceOnUse" x1="-9050.6406" y1="90.9836" x2="-9050.6406" y2="145.0565" gradientTransform="matrix(-1 0 0 1 -9009.2363 0)">
				<stop  offset="1.239918e-03" style="stop-color:#0066BD"/>
				<stop  offset="0.131" style="stop-color:#037AB4"/>
				<stop  offset="0.3951" style="stop-color:#0CAD9D"/>
				<stop  offset="0.6438" style="stop-color:#15E385"/>
				<stop  offset="0.6977" style="stop-color:#20E47C"/>
				<stop  offset="0.7936" style="stop-color:#3FE563"/>
				<stop  offset="0.9196" style="stop-color:#70E83C"/>
				<stop  offset="1" style="stop-color:#93EA20"/>
			</linearGradient>
			<path class="st2" d="M68.4,141V95c0-2.2-1.8-4-4-4h-46c-3.6,0-5.4,4.3-2.8,6.9l46,46C64.1,146.4,68.4,144.6,68.4,141z"/>
			
				<linearGradient id="SVGID_00000040549629069697759480000005818624978016338087_" gradientUnits="userSpaceOnUse" x1="-10278.8516" y1="-20.3566" x2="-10314.3145" y2="41.0672" gradientTransform="matrix(1 0 0 -1 10627.5645 193.7935)">
				<stop  offset="0" style="stop-color:#0B94A8"/>
				<stop  offset="9.836093e-02" style="stop-color:#0C9AA5"/>
				<stop  offset="0.2295" style="stop-color:#0EAB9E"/>
				<stop  offset="0.3786" style="stop-color:#11C692"/>
				<stop  offset="0.5023" style="stop-color:#15E385"/>
				<stop  offset="0.596" style="stop-color:#20E47C"/>
				<stop  offset="0.7624" style="stop-color:#3FE564"/>
				<stop  offset="0.816" style="stop-color:#4AE65B"/>
				<stop  offset="0.9986" style="stop-color:#93EA20"/>
			</linearGradient>
			<path style="fill:url(#SVGID_00000040549629069697759480000005818624978016338087_);" d="M313.9,154.7v46c0,2.2,1.8,4,4,4h46
				c3.6,0,5.4-4.3,2.8-6.9l-46-46C318.2,149.3,313.9,151.1,313.9,154.7z"/>
			
				<linearGradient id="SVGID_00000122679266296995253410000010046517941763953570_" gradientUnits="userSpaceOnUse" x1="263.0219" y1="32.1967" x2="133.3541" y2="256.788">
				<stop  offset="0" style="stop-color:#00E296"/>
				<stop  offset="0.5079" style="stop-color:#4AE65B"/>
				<stop  offset="0.9986" style="stop-color:#93EA20"/>
			</linearGradient>
			
				<polygon style="fill:#FFFFFF;stroke:url(#SVGID_00000122679266296995253410000010046517941763953570_);stroke-width:8;stroke-miterlimit:10;" points="
				265.9,38.8 66,38.8 66,117.2 66,185.8 130.4,250.1 330.4,250.1 330.4,191 330.4,117.2 330.4,103.2 			"/>
			<g>
				<path class="st5" d="M238.4,101h-216c-5.2,0-9.4-4.2-9.4-9.4V22.4c0-5.2,4.2-9.4,9.4-9.4h216c5.2,0,9.4,4.2,9.4,9.4v69.1
					C247.9,96.7,243.6,101,238.4,101z"/>
				<g>
					<path class="st6" d="M67.5,39.8c-1.6-0.9-3.6-0.2-4.4,1.5L51.3,66.7l0,0c-0.3,0.5-0.5,0.9-1.1,0.9c-0.6,0-0.9-0.4-1.1-0.9l0,0
						L37.2,41.3c-0.8-1.7-2.8-2.4-4.4-1.5c-1.6,0.9-2.2,2.9-1.4,4.6l11.5,23.5l1.3,2.7c1.1,2.3,3.4,3.8,5.9,3.8
						c2.5,0,4.8-1.5,5.9-3.8l1.3-2.7l11.5-23.5C69.7,42.7,69.1,40.7,67.5,39.8z"/>
					<path class="st6" d="M223.9,39.4c-2.2,0-4.2,1.4-5.1,3.3c-3,6.1-11.8,24.3-11.8,24.4c-0.1,0.1-0.3,0.5-0.6,0.5
						c-0.4,0-0.6-0.4-0.6-0.5l0,0c-2.9-6-8.7-18-11.7-24.1c-1.2-2.4-3.1-3.5-5.2-3.5h0c-3.2,0-5.9,2.7-5.9,6.5v25
						c0,1.5,0.9,2.9,2.2,3.4c2.2,0.7,4-1.2,4-3.4l-0.5-24.4c0-0.3,0.3-0.3,0.4-0.1l12,24.4c1.1,2.3,3.1,3.7,5.2,3.7
						c2.1,0,4.1-1.4,5.2-3.7l12-24.3c0.1-0.2,0.4-0.1,0.4,0.1L223.6,71c0,1.9,1.4,3.5,3.2,3.4c1.7-0.1,3-1.7,3-3.6
						c0,0,0-18.7,0-24.9C229.8,42.1,227.2,39.4,223.9,39.4z"/>
					<path class="st6" d="M178.9,69.3l-13.3-26.2c-1.1-2.3-3.4-3.8-5.9-3.8c-1.6,0-3,0.6-4.2,1.6c-0.7,0.6-1.3,1.3-1.7,2.2l-13.2,26
						c0,0,0,0.1,0,0.1l0,0c-0.6,1.2-0.5,2.6,0.3,3.7c0,0,0,0.1,0.1,0.1c0,0,0,0.1,0.1,0.1c0.2,0.3,0.5,0.6,0.9,0.8
						c1.1,0.7,2.4,0.6,3.4-0.1c0,0,0,0,0,0c0.1-0.1,0.1-0.1,0.2-0.2c0.1,0,0.1-0.1,0.2-0.2c0,0,0,0,0.1-0.1c0.2-0.2,0.4-0.5,0.6-0.8
						l0.5-1l2.8-5.8c0.1-0.1,0.2-0.2,0.4-0.2l0,0h12.2c0,0,0,0,0,0c1.6,0,3-1.4,3-3.1c0-1.7-1.3-3.1-3-3.1h-7.3l0,0h-1.8
						c-0.2,0-0.3-0.2-0.2-0.4l0.7-1.4l5-10l0,0c0,0,0,0,0-0.1c0,0,0,0,0,0c0.1-0.2,0.3-0.9,0.8-1c0.3-0.1,0.5-0.1,0.7,0
						c0.5,0.2,0.7,0.8,0.9,1.2c0,0,0,0,0,0l12.1,25.1c0.6,1.2,1.7,1.8,2.9,1.8c0.4,0,0.7-0.1,1.1-0.2c0,0,0,0,0.1,0
						c0.1,0,0.2-0.1,0.3-0.1c0,0,0.1,0,0.1,0c0,0,0,0,0.1,0c0,0,0.1,0,0.1,0c0,0,0.1-0.1,0.1-0.1c0,0,0.1,0,0.1-0.1
						c0,0,0.1-0.1,0.1-0.1c0.1,0,0.1-0.1,0.2-0.1c0,0,0,0,0,0C179.3,72.4,179.7,70.7,178.9,69.3z"/>
					<g>
						<path class="st6" d="M76.4,60.7h22.3c0.4,0,3.9-0.3,3.9-4.2c0-9.6-7.4-17.4-16.6-17.4s-16.6,7.8-16.6,17.4c0,0.2,0,0.8,0,0.9
							c0,11,7,16.9,16.4,17.4c0.4,0,0.9,0,1.3,0c3.6,0,6.6-0.9,9.9-3c0.3-0.2,1.7-1.1,3-2.8c1.1-1.4,1.2-3.4,0-4.5
							c-1.7-1.5-3.4-0.7-4.9,0.6c-2.4,2.1-4.3,3.7-9.1,3.7c-4.5,0-8.8-2.6-9.9-7.8C76.1,60.9,76.2,60.7,76.4,60.7z M76.1,54.3
							c0.6-5,4.1-9.5,9.9-9.5s9.4,4.4,10,9.5c0,0.2-0.1,0.4-0.3,0.4H76.4C76.2,54.6,76.1,54.4,76.1,54.3z"/>
					</g>
					<g>
						<path class="st6" d="M113.1,60.7h22.3c0.4,0,3.9-0.3,3.9-4.2c0-9.6-7.4-17.4-16.6-17.4s-16.6,7.8-16.6,17.4c0,0.2,0,0.8,0,0.9
							c0,11,7,16.9,16.4,17.4c0.4,0,0.9,0,1.3,0c3.6,0,6.6-0.9,9.9-3c0.3-0.2,1.7-1.1,3-2.8c1.1-1.4,1.2-3.4,0-4.5
							c-1.7-1.5-3.4-0.7-4.9,0.6c-2.4,2.1-4.3,3.7-9.1,3.7c-4.5,0-8.8-2.6-9.9-7.8C112.8,60.9,112.9,60.7,113.1,60.7z M112.8,54.3
							c0.6-5,4.1-9.5,9.9-9.5c5.8,0,9.4,4.4,10,9.5c0,0.2-0.1,0.4-0.3,0.4h-19.3C112.9,54.6,112.8,54.4,112.8,54.3z"/>
					</g>
				</g>
			</g>
			<g>
				
					<linearGradient id="SVGID_00000011024330637922645130000000043467028551906492_" gradientUnits="userSpaceOnUse" x1="1263.4745" y1="288.9993" x2="1092.6639" y2="118.1887" gradientTransform="matrix(-1 0 0 -1 1421.9757 449.4343)">
					<stop  offset="0" style="stop-color:#0BA8A8"/>
					<stop  offset="0.1147" style="stop-color:#0CAEA4"/>
					<stop  offset="0.2677" style="stop-color:#0FBF9A"/>
					<stop  offset="0.4417" style="stop-color:#14DA8A"/>
					<stop  offset="0.4873" style="stop-color:#15E385"/>
					<stop  offset="0.5644" style="stop-color:#20E47C"/>
					<stop  offset="0.7011" style="stop-color:#3FE564"/>
					<stop  offset="0.7453" style="stop-color:#4AE65B"/>
					<stop  offset="0.9986" style="stop-color:#93EA20"/>
				</linearGradient>
				<path style="fill:url(#SVGID_00000011024330637922645130000000043467028551906492_);" d="M126.3,196.5h235.2
					c5.2,0,9.4,4.2,9.4,9.4v79.7c0,5.2-4.2,9.4-9.4,9.4H126.3c-5.2,0-9.4-4.2-9.4-9.4V206C116.9,200.8,121.1,196.5,126.3,196.5z"/>
			</g>
			<g>
				<path class="st8" d="M99.6,121.1h6.1l4.6,14.5h0.1l4.5-14.5h5.5l-7.3,21.5H107L99.6,121.1z"/>
				<path class="st8" d="M119.3,138.2c0-3.5,2.4-4.7,6-5.1l3-0.4v-0.7c0-1.7-0.8-2.1-3.2-2.1c-1.6,0-3.2,0.2-4.4,0.5v-3.6
					c1.7-0.7,3.9-1,6.4-1c4.1,0,6.6,1.3,6.6,5.1v11.8h-4.5l-0.4-1.3h-0.2c-0.7,1-2.1,1.6-4.2,1.6
					C121.4,142.9,119.3,141.4,119.3,138.2z M128.3,138.8v-3.2l-1.9,0.2c-1.3,0.1-1.9,0.6-1.9,1.9c0,1.4,0.8,1.8,1.8,1.8
					C127.1,139.4,127.9,139.2,128.3,138.8z"/>
				<path class="st8" d="M136.3,119.7h5.4v22.9h-5.4V119.7z"/>
				<path class="st8" d="M144.4,138.1v-12h5.4v10.9c0,1.3,0.6,1.8,2,1.8c1,0,1.8-0.3,2.5-0.6v-12.1h5.4v16.5h-4.8l-0.4-1.5h-0.2
					c-1.5,1.1-2.9,1.8-5,1.8C146.2,142.9,144.4,141.5,144.4,138.1z"/>
				<path class="st8" d="M161.6,134.5v-0.4c0-5.1,3.2-8.3,8.2-8.3c5.5,0,7.6,3.1,7.6,8.5v1.4h-10.2c0.3,2.6,1.8,3.3,4.6,3.3
					c2,0,3.7-0.5,4.9-1v3.4c-1.2,0.7-3.3,1.5-6.3,1.5C164.4,142.9,161.6,139.9,161.6,134.5z M167.1,132.7h5c0-2.4-0.8-3.3-2.4-3.3
					C168.5,129.4,167.3,130.1,167.1,132.7z"/>
				<path class="st8" d="M179.1,131.5h7.8v4.3h-7.8V131.5z"/>
				<path class="st8" d="M194.6,121.1h6.4l7.4,21.5h-6.1l-1.4-4.2h-7.1l-1.3,4.2h-5.4L194.6,121.1z M195,134.5h4.7l-2.3-7.1h-0.1
					L195,134.5z"/>
				<path class="st8" d="M208.5,134.8v-0.4c0-6.2,3.1-8.6,7.5-8.6c1.7,0,2.9,0.4,3.4,0.7v-6.8h5.4v22.9h-4.7l-0.4-1.3h-0.2
					c-1.1,1.1-2.6,1.6-4.6,1.6C211.6,142.9,208.5,140.6,208.5,134.8z M219.4,138.2v-8.1c-0.4-0.3-1.2-0.6-2.3-0.6
					c-1.9,0-3.1,1-3.1,4.5v0.5c0,3.5,1.2,4.4,3,4.4C218.1,138.9,218.9,138.5,219.4,138.2z"/>
				<path class="st8" d="M226.8,134.8v-0.4c0-6.2,3.1-8.6,7.5-8.6c1.7,0,2.9,0.4,3.4,0.7v-6.8h5.4v22.9h-4.7l-0.4-1.3H238
					c-1.1,1.1-2.6,1.6-4.6,1.6C229.9,142.9,226.8,140.6,226.8,134.8z M237.8,138.2v-8.1c-0.4-0.3-1.2-0.6-2.3-0.6
					c-1.9,0-3.1,1-3.1,4.5v0.5c0,3.5,1.2,4.4,3,4.4C236.5,138.9,237.3,138.5,237.8,138.2z"/>
				<path class="st8" d="M245.1,134.5v-0.4c0-5.1,3.2-8.3,8.2-8.3c5.5,0,7.6,3.1,7.6,8.5v1.4h-10.2c0.3,2.6,1.8,3.3,4.6,3.3
					c2,0,3.7-0.5,4.9-1v3.4c-1.2,0.7-3.3,1.5-6.3,1.5C248,142.9,245.1,139.9,245.1,134.5z M250.6,132.7h5c0-2.4-0.8-3.3-2.4-3.3
					C252,129.4,250.8,130.1,250.6,132.7z"/>
				<path class="st8" d="M262.1,134.8v-0.4c0-6.2,3.1-8.6,7.5-8.6c1.7,0,2.9,0.4,3.4,0.7v-6.8h5.4v22.9h-4.7l-0.4-1.3h-0.2
					c-1.1,1.1-2.6,1.6-4.6,1.6C265.1,142.9,262.1,140.6,262.1,134.8z M273,138.2v-8.1c-0.4-0.3-1.2-0.6-2.3-0.6
					c-1.9,0-3.1,1-3.1,4.5v0.5c0,3.5,1.2,4.4,3,4.4C271.7,138.9,272.5,138.5,273,138.2z"/>
				<path class="st8" d="M101.1,154.2h9.1c5.4,0,8.2,2.1,8.2,6.7c0,2.9-1.3,4.5-3.6,5.4v0.1l4.8,9.2h-6.3l-3.9-7.8h-2.2v7.8h-6
					V154.2z M109.4,164.2c2.1,0,3-1,3-3.1c0-2-0.9-2.9-3.1-2.9h-2.2v6H109.4z"/>
				<path class="st8" d="M119.6,167.6v-0.4c0-5.1,3.2-8.3,8.2-8.3c5.5,0,7.6,3.1,7.6,8.5v1.4h-10.2c0.3,2.6,1.8,3.3,4.6,3.3
					c2,0,3.7-0.5,4.9-1v3.4c-1.2,0.7-3.3,1.5-6.3,1.5C122.5,176,119.6,173,119.6,167.6z M125.1,165.7h5c0-2.4-0.8-3.3-2.4-3.3
					C126.5,162.4,125.4,163.2,125.1,165.7z"/>
				<path class="st8" d="M136.8,174.9v-3.7c1.3,0.5,2.7,1,4.9,1c2,0,2.8-0.5,2.8-1.4c0-0.8-0.5-1.1-1.9-1.3l-1.5-0.2
					c-2.8-0.4-4.4-2-4.4-5.1c0-3.3,2.2-5.3,6.8-5.3c2.4,0,4,0.3,5.2,0.9v3.6c-1.1-0.3-2.6-0.7-4.5-0.7c-1.6,0-2.4,0.4-2.4,1.3
					c0,0.8,0.6,1.1,1.9,1.3l1.5,0.2c3.3,0.5,4.5,2.2,4.5,5.1c0,3.6-2.3,5.5-7.2,5.5C140.3,176,138.1,175.5,136.8,174.9z"/>
				<path class="st8" d="M151.1,167.6v-0.4c0-5.1,3.2-8.3,8.2-8.3c5.5,0,7.6,3.1,7.6,8.5v1.4h-10.2c0.3,2.6,1.8,3.3,4.6,3.3
					c2,0,3.7-0.5,4.9-1v3.4c-1.2,0.7-3.3,1.5-6.3,1.5C153.9,176,151.1,173,151.1,167.6z M156.6,165.7h5c0-2.4-0.8-3.3-2.4-3.3
					C158,162.4,156.8,163.2,156.6,165.7z"/>
				<path class="st8" d="M168.8,152.7h5.4v22.9h-5.4V152.7z"/>
				<path class="st8" d="M177,152.7h5.4v22.9H177V152.7z"/>
				<path class="st8" d="M184.4,167.6v-0.4c0-5.1,3.2-8.3,8.2-8.3c5.5,0,7.6,3.1,7.6,8.5v1.4H190c0.3,2.6,1.8,3.3,4.6,3.3
					c2,0,3.7-0.5,4.9-1v3.4c-1.2,0.7-3.3,1.5-6.3,1.5C187.3,176,184.4,173,184.4,167.6z M189.9,165.7h5c0-2.4-0.8-3.3-2.4-3.3
					C191.3,162.4,190.2,163.2,189.9,165.7z"/>
				<path class="st8" d="M202.1,159.2h5.2v2h0.2c0.9-1.3,2.4-2.2,4.1-2.2c0.4,0,0.8,0.1,1,0.2v4.8c-0.3-0.1-0.9-0.2-1.4-0.2
					c-1.5,0-2.7,0.3-3.6,0.7v11.2h-5.4V159.2z"/>
			</g>
			<g>
				<g>
					<path class="st6" d="M147.1,230.6h11.7c7,0,10.5,2.7,10.5,8.6c0,3.8-1.7,5.8-4.6,7v0.2l6.2,11.9h-8.1l-5.1-10.1h-2.8v10.1h-7.8
						V230.6z M157.7,243.5c2.8,0,3.9-1.3,3.9-4c0-2.6-1.2-3.7-4-3.7h-2.8v7.7H157.7z"/>
					<path class="st6" d="M170.9,247.8v-0.5c0-6.6,4.1-10.7,10.5-10.7c7.1,0,9.8,4,9.8,11v1.8h-13.2c0.4,3.3,2.3,4.2,5.9,4.2
						c2.5,0,4.7-0.6,6.4-1.3v4.4c-1.6,1-4.2,1.9-8.2,1.9C174.7,258.7,170.9,254.9,170.9,247.8z M178.1,245.5h6.4c0-3.1-1-4.2-3-4.2
						C179.9,241.2,178.4,242.2,178.1,245.5z"/>
					<path class="st6" d="M191.9,261.2c0-2.2,1.7-3.5,4-4.2v-0.2c-1.3-0.6-2.3-1.6-2.3-3.2c0-1.8,1.1-3.2,2.6-4.4
						c-1.8-1.1-2.8-2.8-2.8-5.2v-0.3c0-4.6,3.6-7,9.2-7c1.4,0,2.7,0.1,3.9,0.4h7.2v4h-2.7c0.5,0.6,0.7,1.4,0.7,2.4v0.3
						c0,4.5-3.6,6.8-9.1,6.8c-1.1,0-2.1-0.1-3.1-0.3c-0.2,0.3-0.4,0.7-0.4,1.1c0,0.8,0.4,1.2,1.6,1.2h6c4.5,0,7.2,1.8,7.2,6
						c0,4.6-3.7,7.8-11.6,7.8C195,266.3,191.9,264.2,191.9,261.2z M206.9,259.7c0-1.3-0.6-1.6-2.7-1.6h-4.5
						c-0.8,0.3-1.4,0.8-1.4,1.8c0,1.2,0.8,2,4,2C205.9,262,206.9,261,206.9,259.7z M205.1,243.8v-0.4c0-2.2-0.9-2.8-2.6-2.8
						c-1.7,0-2.6,0.8-2.6,2.8v0.4c0,2.1,0.9,2.8,2.6,2.8C204.2,246.6,205.1,245.8,205.1,243.8z"/>
					<path class="st6" d="M215.7,229.2h7.1v5.4h-7.1V229.2z M215.7,237h7v21.3h-7V237z"/>
					<path class="st6" d="M225.4,257.3v-4.7c1.7,0.6,3.5,1.2,6.4,1.2c2.6,0,3.6-0.6,3.6-1.8c0-1.1-0.6-1.4-2.4-1.6l-2-0.3
						c-3.6-0.5-5.7-2.5-5.7-6.6c0-4.3,2.8-6.9,8.7-6.9c3.1,0,5.1,0.4,6.8,1.1v4.7c-1.4-0.4-3.3-1-5.8-1c-2.1,0-3.1,0.5-3.1,1.6
						c0,1.1,0.7,1.4,2.4,1.6l2,0.3c4.3,0.6,5.8,2.9,5.8,6.6c0,4.7-3,7.1-9.3,7.1C229.9,258.7,227.1,258.1,225.4,257.3z"/>
					<path class="st6" d="M245.3,252.5v-10.6h-2.6V237h2.6v-5h7v5h4.3v4.9h-4.3v9.6c0,1.5,0.6,2,2.4,2c0.7,0,1.5-0.1,2.1-0.2v4.5
						c-0.8,0.4-2.4,0.9-4.7,0.9C247.8,258.6,245.3,257.2,245.3,252.5z"/>
					<path class="st6" d="M258.2,247.8v-0.5c0-6.6,4.1-10.7,10.5-10.7c7.1,0,9.8,4,9.8,11v1.8h-13.2c0.4,3.3,2.3,4.2,5.9,4.2
						c2.5,0,4.7-0.6,6.4-1.3v4.4c-1.6,1-4.2,1.9-8.2,1.9C261.9,258.7,258.2,254.9,258.2,247.8z M265.3,245.5h6.4c0-3.1-1-4.2-3-4.2
						C267.1,241.2,265.6,242.2,265.3,245.5z"/>
					<path class="st6" d="M280.9,237h6.8v2.6h0.2c1.1-1.6,3-2.8,5.3-2.8c0.6,0,1,0.1,1.2,0.2v6.2c-0.4-0.1-1.2-0.2-1.8-0.2
						c-1.9,0-3.5,0.4-4.7,1v14.4h-7V237z"/>
					<path class="st6" d="M295.1,247.8v-0.5c0-6.6,4.1-10.7,10.5-10.7c7.1,0,9.8,4,9.8,11v1.8h-13.2c0.4,3.3,2.3,4.2,5.9,4.2
						c2.5,0,4.7-0.6,6.4-1.3v4.4c-1.6,1-4.2,1.9-8.2,1.9C298.9,258.7,295.1,254.9,295.1,247.8z M302.3,245.5h6.4c0-3.1-1-4.2-3-4.2
						C304.1,241.2,302.6,242.2,302.3,245.5z"/>
					<path class="st6" d="M317.1,248.2v-0.5c0-8,4-11.1,9.7-11.1c2.2,0,3.7,0.5,4.4,0.9v-8.8h7v29.6h-6l-0.5-1.6h-0.2
						c-1.4,1.4-3.4,2-6,2C321,258.7,317.1,255.7,317.1,248.2z M331.2,252.6v-10.4c-0.6-0.4-1.6-0.8-2.9-0.8c-2.5,0-4,1.3-4,5.8v0.7
						c0,4.5,1.5,5.6,3.9,5.6C329.5,253.6,330.5,253.1,331.2,252.6z"/>
				</g>
			</g>
		</g>
	</g>
</g>
</svg>
